<?xml version="1.0" standalone="no"?>
<!DOCTYPE svg PUBLIC "-//W3C//DTD SVG 20010904//EN"
 "http://www.w3.org/TR/2001/REC-SVG-20010904/DTD/svg10.dtd">
<svg version="1.0" xmlns="http://www.w3.org/2000/svg"
 width="512.000000pt" height="512.000000pt" viewBox="0 0 512.000000 512.000000"
 preserveAspectRatio="xMidYMid meet">
<metadata>
Created by potrace 1.16, written by Peter Selinger 2001-2019
</metadata>
<g transform="translate(0.000000,512.000000) scale(0.100000,-0.100000)"
fill="#000000" stroke="none">
<path d="M290 5106 c0 -40 73 -48 78 -8 3 20 -1 22 -37 22 -28 0 -41 -4 -41
-14z"/>
<path d="M1193 5105 c-12 -9 -20 -22 -17 -29 3 -8 -4 -16 -20 -20 -33 -8 -86
-54 -86 -74 0 -12 -3 -13 -12 -4 -14 14 -48 -2 -48 -23 0 -8 -9 -15 -19 -15
-11 0 -23 -5 -27 -12 -4 -6 -3 -8 4 -4 6 4 12 -4 14 -21 2 -20 9 -29 25 -31
12 -2 29 -14 37 -28 21 -31 76 -35 76 -4 0 13 -7 20 -20 20 -11 0 -20 4 -20 9
0 19 20 22 47 8 20 -11 33 -12 50 -4 33 15 37 4 14 -41 -12 -23 -18 -48 -15
-56 8 -20 -27 -22 -55 -4 -27 16 -71 -4 -71 -32 0 -23 -40 -46 -65 -36 -11 4
-14 12 -10 27 5 14 2 25 -6 30 -10 6 -10 9 -2 9 7 0 19 13 27 29 14 26 14 30
-4 46 -17 15 -24 16 -45 7 -27 -13 -33 -39 -11 -48 19 -7 -20 -49 -58 -64 -23
-8 -27 -15 -23 -35 2 -14 1 -28 -3 -30 -5 -3 -11 -24 -15 -46 -5 -30 -3 -44 6
-50 23 -14 29 -11 45 26 16 39 30 45 39 15 3 -11 14 -20 24 -20 22 0 51 31 51
53 0 11 8 17 23 17 28 0 67 26 67 46 0 10 12 14 40 14 22 0 40 -4 40 -10 0 -5
7 -10 16 -10 9 0 12 5 8 11 -4 7 -1 10 7 7 21 -7 23 -47 4 -68 -12 -13 -38
-20 -100 -25 -69 -5 -90 -11 -118 -33 -48 -38 -73 -92 -41 -92 8 0 13 -4 10
-8 -2 -4 -1 -14 4 -21 14 -24 37 -4 44 38 3 23 11 41 16 41 6 0 10 7 10 15 0
8 12 17 28 21 15 3 38 10 51 15 13 5 25 8 26 7 1 -2 -6 -22 -16 -45 -13 -30
-28 -46 -51 -56 -18 -8 -42 -24 -52 -36 -11 -11 -26 -21 -34 -21 -8 0 -28 -12
-45 -26 -24 -20 -38 -25 -63 -21 -33 6 -62 -12 -50 -31 3 -5 -4 -16 -15 -26
-19 -16 -19 -19 -5 -41 9 -13 13 -32 9 -41 -4 -11 1 -22 12 -30 10 -8 14 -14
7 -14 -6 0 -9 -7 -6 -15 4 -8 15 -15 26 -15 10 0 30 -12 43 -27 l23 -28 26 24
c17 16 26 35 26 55 0 23 3 27 12 18 19 -19 36 -14 40 10 2 17 10 23 28 23 21
0 25 4 23 27 -1 18 4 28 18 31 12 3 19 0 19 -9 0 -8 10 -14 23 -14 45 0 84
-159 53 -219 -10 -18 -24 -35 -32 -38 -22 -8 -16 -33 9 -33 37 1 137 176 137
241 0 12 -14 34 -31 50 -17 16 -29 35 -26 42 3 8 2 19 -3 26 -4 7 1 35 11 62
20 52 24 79 11 79 -8 0 -32 -86 -39 -142 -4 -30 0 -41 26 -69 17 -17 31 -35
31 -39 0 -17 -43 -146 -51 -155 -5 -5 -9 20 -9 63 0 68 -21 148 -42 163 -5 3
-8 10 -7 15 7 23 -14 54 -35 54 -19 0 -22 4 -18 25 3 18 0 25 -12 25 -39 0
-80 -76 -57 -104 10 -12 8 -13 -8 -9 -16 4 -21 1 -21 -13 0 -11 -18 -31 -39
-46 -42 -30 -60 -36 -44 -15 6 6 13 33 16 58 10 72 24 102 47 96 14 -4 25 4
41 29 11 19 34 41 50 49 19 10 32 28 41 56 8 30 22 48 49 65 45 28 47 31 58
88 6 34 5 49 -5 57 -7 6 -17 8 -23 5 -14 -9 -23 25 -9 41 8 10 22 12 48 8 34
-6 39 -3 71 37 19 24 43 56 52 71 12 18 24 26 35 23 9 -3 35 -10 58 -15 36
-10 41 -14 37 -35 -3 -16 3 -29 21 -44 14 -11 26 -28 26 -39 0 -10 5 -24 11
-30 11 -11 -3 -52 -19 -54 -4 0 -33 -2 -65 -3 -43 -2 -63 -8 -78 -23 -19 -19
-20 -24 -8 -57 12 -32 11 -38 -8 -63 -16 -22 -28 -27 -53 -25 -24 2 -31 -1
-27 -12 3 -8 11 -34 18 -57 7 -24 16 -48 21 -53 4 -6 8 -31 8 -58 0 -38 5 -52
26 -72 21 -19 25 -30 20 -50 -5 -22 -12 -26 -40 -26 -30 0 -35 -4 -57 -52 -51
-110 -91 -174 -120 -187 -29 -13 -35 -18 -149 -138 -38 -40 -75 -71 -82 -70
-7 2 -10 2 -6 0 4 -2 -4 -20 -18 -40 -43 -63 -28 -88 54 -92 30 -1 55 6 86 24
35 21 52 25 80 20 19 -4 42 -2 52 3 13 7 24 6 41 -5 12 -8 30 -13 38 -9 23 8
18 41 -7 55 -23 11 -23 11 -1 7 13 -2 20 1 17 8 -2 6 19 23 48 37 37 17 54 31
56 47 2 12 8 22 13 22 6 0 21 11 34 25 18 17 25 35 25 63 0 32 5 41 25 50 14
7 35 12 46 12 11 0 32 6 47 14 26 13 27 18 25 76 -1 34 -4 65 -7 68 -3 3 -39
4 -80 3 -95 -3 -107 7 -92 78 9 47 8 53 -11 73 -18 17 -20 25 -11 47 28 70 26
69 83 66 36 -2 58 1 65 10 6 8 17 12 25 9 7 -3 16 0 20 5 3 6 21 17 39 25 25
10 35 23 45 56 17 57 16 115 -3 169 -9 24 -16 45 -16 47 0 2 16 4 35 4 47 0
59 24 50 101 -6 49 -12 62 -35 79 -40 29 -53 26 -45 -9 6 -28 4 -30 -31 -40
-24 -7 -43 -7 -55 -1 -25 14 -32 12 -25 -6 3 -9 2 -12 -5 -9 -5 4 -8 12 -6 18
6 18 -35 45 -84 56 -68 16 -85 14 -97 -13 -14 -31 -81 -106 -94 -106 -5 0 -7
9 -3 19 8 26 -25 48 -89 60 -56 10 -76 25 -58 43 9 9 15 9 24 0 7 -7 25 -12
41 -12 16 0 51 -8 78 -17 26 -10 52 -14 56 -9 4 4 -4 29 -18 55 l-27 47 24 27
c13 16 24 34 24 42 0 8 6 12 14 9 8 -3 17 -1 21 5 11 18 -136 14 -162 -4z m87
-40 c0 -8 -4 -15 -10 -15 -18 0 -10 -53 12 -77 42 -45 -10 -37 -66 11 l-29 24
28 36 c28 36 65 49 65 21z m-212 -130 c-3 -29 -18 -34 -18 -7 0 17 8 32 17 32
1 0 2 -11 1 -25z m641 -85 c0 -11 -3 -10 -14 4 -10 14 -18 16 -27 9 -7 -6 -27
-13 -45 -16 -26 -5 -31 -3 -26 8 3 8 17 15 32 15 15 0 36 6 47 14 17 13 20 13
26 -2 4 -9 7 -24 7 -32z m-784 -130 c3 -5 1 -10 -4 -10 -6 0 -11 5 -11 10 0 6
2 10 4 10 3 0 8 -4 11 -10z m-5 -51 c0 -5 -9 -4 -19 3 -11 7 -17 16 -14 20 5
10 33 -10 33 -23z m50 21 c0 -5 -4 -10 -9 -10 -6 0 -13 5 -16 10 -3 6 1 10 9
10 9 0 16 -4 16 -10z m488 -26 c15 -4 22 -14 22 -30 0 -20 5 -24 28 -24 34 0
52 -16 52 -47 0 -37 -37 -62 -102 -69 -49 -6 -61 -11 -72 -32 -15 -28 -21 -23
-30 29 -5 29 -2 39 15 55 26 24 51 70 48 92 -3 35 -1 36 39 26z m-538 -325
c-20 -53 -45 -89 -63 -89 -6 0 -3 8 6 18 18 20 24 57 8 47 -5 -3 -12 -1 -16 5
-3 5 -2 10 3 10 6 0 13 11 16 24 4 17 15 26 34 29 15 2 28 5 29 6 1 0 -7 -22
-17 -50z m489 -158 c38 -38 43 -40 95 -38 30 1 56 0 59 -3 2 -3 2 -24 -1 -48
-3 -35 -7 -42 -21 -37 -9 4 -29 8 -46 11 -28 4 -29 4 -7 -7 22 -12 22 -13 -19
-36 -23 -13 -59 -26 -80 -29 -34 -6 -39 -10 -39 -34 0 -30 -22 -44 -87 -56
-44 -8 -64 -20 -58 -37 10 -26 -32 -53 -133 -88 -92 -32 -100 -27 -53 30 40
47 43 49 71 38 35 -13 61 -2 70 29 6 23 58 108 83 138 10 11 16 15 12 9 -10
-21 23 -15 45 7 24 24 25 31 5 24 -8 -4 -15 -3 -15 1 0 10 41 148 47 158 10
16 35 5 72 -32z m21 -231 c0 -21 -8 -35 -26 -47 -14 -9 -30 -27 -35 -40 -6
-16 -34 -35 -86 -60 -43 -20 -86 -43 -96 -52 -12 -9 -33 -14 -58 -12 -26 2
-51 -4 -75 -18 -46 -27 -114 -29 -114 -3 0 14 8 19 29 19 37 0 156 38 206 66
28 16 41 30 43 49 3 21 10 27 40 33 71 12 102 28 109 55 9 37 12 40 39 40 20
0 24 -5 24 -30z m-270 -25 c-7 -8 -19 -15 -28 -15 -12 0 -10 6 9 26 24 26 41
16 19 -11z m-28 -47 c-8 -8 -17 -8 -34 0 -22 10 -21 11 12 11 26 1 31 -2 22
-11z"/>
<path d="M1345 4140 c-3 -5 -1 -11 5 -15 5 -3 10 -17 10 -30 0 -13 5 -27 10
-30 6 -4 10 8 10 29 0 31 3 36 24 36 44 0 35 15 -10 17 -24 1 -46 -2 -49 -7z"/>
<path d="M1492 5108 c3 -7 14 -14 26 -16 25 -4 30 -22 7 -22 -9 0 -26 -9 -38
-20 -26 -25 -14 -53 25 -58 15 -2 28 -11 30 -20 3 -10 26 -24 58 -34 55 -18
72 -16 53 3 -7 7 -8 20 -2 38 12 36 -3 84 -30 98 l-23 11 28 16 29 15 -47 1
c-26 0 -50 -5 -53 -10 -4 -7 -12 -7 -25 0 -26 14 -43 13 -38 -2z m76 -68 c-21
-17 -48 -26 -48 -16 0 2 -3 11 -6 20 -5 13 1 16 30 16 22 0 36 5 37 13 0 9 2
9 6 -1 2 -7 -6 -21 -19 -32z m62 -10 c0 -5 -4 -10 -10 -10 -5 0 -7 -7 -4 -15
4 -9 1 -15 -7 -15 -16 0 -46 17 -39 22 45 29 60 33 60 18z"/>
<path d="M1761 5097 c-11 -27 -29 -44 -56 -49 -24 -4 -32 -36 -11 -44 32 -12
67 7 96 53 36 57 37 63 5 63 -17 0 -28 -7 -34 -23z"/>
<path d="M1830 5091 c0 -30 39 -81 63 -81 20 0 32 51 15 61 -7 5 -20 9 -28 9
-9 0 -7 5 8 16 36 25 51 12 45 -35 -5 -38 -4 -41 18 -41 36 1 54 21 57 63 l3
37 -91 0 -90 0 0 -29z m55 -39 c-3 -3 -11 0 -18 7 -9 10 -8 11 6 5 10 -3 15
-9 12 -12z"/>
<path d="M2130 5115 c0 -2 18 -13 41 -24 33 -16 41 -17 45 -6 10 24 -6 35 -47
35 -21 0 -39 -2 -39 -5z"/>
<path d="M2261 5111 c-31 -8 -40 -31 -12 -31 30 0 35 -19 6 -26 -26 -6 -35
-37 -14 -50 8 -4 7 -9 -2 -16 -10 -7 -3 -8 20 -4 19 3 39 1 46 -4 9 -8 13 -4
13 15 0 18 -6 25 -19 25 -21 0 -25 15 -8 25 5 4 18 0 28 -9 10 -9 21 -16 24
-16 14 0 6 28 -13 45 -29 26 -25 32 21 31 25 -1 44 4 46 12 5 13 -91 16 -136
3z"/>
<path d="M2538 5074 c-46 -56 -49 -77 -11 -68 19 5 30 2 40 -11 20 -28 16 -10
-7 27 -23 39 -27 62 -4 30 21 -30 37 -28 81 11 21 19 47 39 58 45 16 9 7 11
-50 12 l-70 0 -37 -46z"/>
<path d="M2806 5105 c4 -8 9 -15 13 -15 4 0 7 -22 8 -49 1 -47 0 -49 -25 -48
-27 2 -46 -23 -56 -73 -5 -25 -104 -164 -132 -186 -7 -6 -11 -14 -7 -18 13
-12 -43 -59 -103 -87 -46 -21 -64 -36 -74 -58 -7 -17 -15 -31 -19 -31 -4 0 -7
-8 -8 -17 -2 -35 -20 -124 -26 -130 -4 -3 -2 -14 4 -24 13 -25 53 -24 95 2 47
29 65 19 20 -11 -36 -25 -45 -43 -26 -55 11 -7 41 7 65 31 11 11 14 25 10 45
-4 18 -2 29 4 29 6 0 11 -6 11 -14 0 -7 7 -19 15 -26 20 -17 82 12 97 45 13
29 3 59 -17 51 -11 -4 -13 1 -8 25 4 22 0 38 -16 59 -28 39 -27 47 12 53 45 7
70 -21 55 -64 -14 -40 -3 -48 23 -16 23 31 39 35 39 10 0 -9 7 -25 16 -34 23
-26 26 -89 4 -89 -9 0 -22 -6 -29 -12 -10 -11 -14 -9 -22 5 -9 14 -14 16 -25
6 -13 -10 -12 -14 2 -30 14 -16 14 -18 -5 -29 -12 -6 -21 -20 -21 -32 0 -16 5
-19 21 -15 13 4 28 -1 37 -10 14 -14 13 -17 -8 -33 -21 -15 -22 -20 -11 -34 7
-9 26 -16 42 -16 22 0 29 -5 29 -19 0 -10 -7 -22 -16 -25 -28 -11 -35 -7 -24
14 9 17 8 20 -8 20 -27 0 -72 -38 -72 -60 0 -28 28 -46 51 -32 10 7 25 12 32
12 7 0 32 14 54 30 33 24 43 39 48 71 6 32 10 39 23 33 10 -3 26 -9 38 -11 20
-5 20 -5 -5 -32 -15 -16 -35 -44 -46 -65 -17 -31 -25 -36 -55 -36 -45 -1 -129
-48 -155 -88 -15 -23 -33 -33 -77 -44 -61 -15 -68 -12 -68 32 0 18 1 18 30 2
38 -22 64 -8 68 38 3 32 3 32 -33 26 -32 -6 -36 -5 -33 11 2 10 13 22 26 28
30 13 29 57 -2 116 -19 35 -22 49 -13 58 8 8 8 14 0 22 -22 22 -120 -63 -112
-97 5 -22 -15 -63 -33 -67 -13 -4 -17 -10 -12 -18 4 -7 3 -10 -3 -6 -6 4 -16
0 -23 -8 -18 -22 12 -65 46 -65 30 0 41 24 23 47 -11 12 -11 17 -2 20 7 3 33
15 58 28 41 20 46 21 54 6 7 -12 3 -18 -20 -28 -41 -17 -56 -54 -42 -106 6
-23 10 -43 8 -45 -2 -2 -19 0 -39 3 -48 9 -127 70 -119 91 7 19 -15 36 -38 29
-9 -3 -22 1 -29 10 -25 30 -88 13 -103 -29 -7 -18 -9 -18 -26 -2 -13 12 -24
14 -42 8 -13 -5 -30 -7 -37 -5 -7 3 -19 -1 -27 -7 -8 -7 -22 -9 -31 -6 -9 3
-27 -3 -41 -14 -14 -11 -33 -20 -42 -20 -20 0 -105 -77 -114 -102 -4 -10 -15
-18 -25 -18 -29 0 -65 -45 -60 -74 4 -19 1 -26 -10 -26 -18 0 -83 -39 -99 -60
-11 -13 -12 -13 -13 3 0 21 -35 57 -55 57 -28 0 -81 -66 -87 -110 -4 -27 -1
-34 16 -38 20 -6 20 -6 -3 -12 -14 -3 -27 -12 -29 -19 -3 -10 1 -12 14 -7 16
6 15 4 -4 -17 -28 -30 -28 -38 3 -83 l25 -37 -22 -25 c-19 -19 -30 -23 -60
-19 -25 3 -46 -1 -67 -14 -26 -16 -31 -25 -31 -58 0 -22 -5 -52 -12 -66 -9
-21 -17 -25 -39 -21 -40 6 -51 16 -46 38 4 16 3 17 -9 7 -8 -6 -14 -19 -14
-28 0 -9 -10 -25 -21 -35 -18 -15 -23 -16 -31 -5 -6 9 -7 2 -2 -21 7 -40 21
-70 32 -70 17 0 46 28 61 60 9 18 21 33 26 34 6 0 20 -29 33 -64 18 -49 21
-69 13 -82 -18 -29 -14 -50 9 -43 15 5 20 2 20 -14 0 -11 -5 -23 -11 -26 -6
-4 -9 -19 -7 -34 1 -15 -8 -43 -21 -65 -20 -32 -25 -55 -28 -138 -3 -68 -1
-104 7 -114 7 -7 10 -22 7 -33 -3 -14 14 -36 66 -83 l71 -63 94 0 c103 0 119
-9 99 -54 -16 -36 -95 -115 -136 -136 -29 -15 -32 -20 -27 -46 3 -16 2 -29 -3
-29 -5 0 -12 -7 -15 -16 -4 -9 -2 -13 5 -8 6 3 32 -17 58 -45 42 -46 51 -51
75 -45 21 5 33 1 54 -18 55 -50 91 -70 114 -62 13 5 43 9 68 9 25 1 55 5 67 9
16 6 24 3 33 -14 10 -19 8 -26 -14 -49 -33 -35 -33 -47 4 -78 36 -30 37 -35 5
-67 -14 -14 -28 -39 -32 -57 -7 -38 -28 -47 -54 -23 -17 15 -19 16 -14 1 4 -9
15 -19 25 -22 19 -6 74 16 85 35 4 6 11 7 17 4 7 -5 9 0 5 15 -4 18 -3 20 9
10 8 -6 17 -9 21 -6 3 4 14 2 25 -4 14 -8 25 -7 41 4 12 7 34 17 49 20 21 6
28 3 33 -13 9 -28 -7 -44 -56 -59 -36 -11 -43 -10 -62 6 -22 18 -22 18 -5 -3
10 -11 18 -28 18 -36 0 -9 14 -21 30 -28 17 -7 33 -16 36 -21 9 -15 -18 -144
-32 -152 -27 -16 -16 -84 32 -187 61 -134 62 -148 25 -257 -35 -103 -38 -142
-13 -198 10 -22 24 -69 31 -105 23 -117 29 -145 45 -185 8 -22 15 -51 16 -65
0 -14 7 -34 15 -44 9 -12 15 -42 15 -79 0 -52 -3 -62 -30 -89 -16 -16 -30 -33
-30 -38 0 -11 68 -70 81 -70 6 0 27 13 47 29 28 23 52 31 99 37 74 8 93 25
100 87 5 44 10 50 103 142 14 14 33 25 42 25 26 0 41 28 42 82 1 46 5 54 31
70 32 19 36 31 38 116 2 53 2 54 47 75 l45 22 2 85 c1 48 -4 93 -10 105 -17
29 -17 57 0 85 22 36 163 149 246 195 l72 41 1 47 c3 72 8 80 52 75 20 -3 45
-8 54 -12 13 -6 20 -2 28 18 5 14 15 26 21 26 7 0 20 7 30 16 22 20 49 12 49
-15 0 -28 64 -34 87 -8 10 10 39 28 66 39 31 13 53 31 63 50 9 18 35 38 70 55
91 43 96 84 17 143 -83 63 -121 100 -141 138 -12 24 -27 38 -43 40 -26 4 -48
28 -49 53 0 9 -9 19 -21 22 -16 4 -20 12 -17 34 2 22 -1 29 -19 31 -30 4 -54
72 -50 137 2 36 -3 64 -20 101 -19 42 -21 57 -13 78 13 36 13 59 -3 80 -12 16
-18 17 -55 5 -37 -11 -44 -10 -62 6 -21 19 -19 57 6 85 7 9 25 38 40 65 23 44
25 54 15 81 -9 24 -8 39 1 60 l12 29 3 -30 c9 -87 13 -95 50 -110 56 -24 100
-19 128 13 24 26 32 52 18 52 -4 0 -19 -12 -35 -27 -27 -26 -28 -26 -75 -12
-29 9 -49 22 -51 32 -4 22 27 22 65 0 29 -16 30 -16 71 24 22 21 49 59 58 84
27 68 83 98 135 73 23 -12 30 -10 60 11 37 28 69 32 69 10 0 -9 -21 -36 -47
-62 -38 -37 -41 -41 -13 -21 19 14 45 29 58 33 18 5 22 3 22 -17 0 -16 10 -30
30 -41 23 -14 30 -25 30 -48 0 -33 7 -36 36 -14 10 8 29 15 41 15 20 0 22 -4
16 -32 -12 -66 -16 -68 -105 -83 -38 -6 -48 -21 -27 -42 12 -12 49 -5 89 17
30 16 48 -1 25 -24 -9 -9 -20 -14 -24 -11 -5 2 -16 -4 -26 -15 -17 -19 -17
-21 14 -52 l32 -33 -31 -25 c-17 -14 -30 -35 -30 -47 0 -26 39 -59 80 -68 16
-3 34 -13 41 -21 7 -9 31 -25 53 -36 35 -18 45 -19 74 -8 18 6 35 10 36 8 2
-1 14 -43 28 -93 24 -85 25 -90 8 -97 -30 -11 -34 -30 -12 -47 19 -15 20 -21
11 -74 -9 -57 -9 -60 26 -115 31 -49 33 -58 20 -68 -23 -17 -19 -29 20 -58 19
-15 47 -50 61 -77 13 -28 33 -52 42 -55 35 -11 47 -22 67 -63 24 -47 81 -109
138 -148 l38 -26 27 20 c15 10 35 22 45 26 9 3 17 15 17 27 0 26 -60 141 -77
147 -20 8 -43 -16 -43 -44 0 -20 3 -22 19 -13 17 8 24 5 45 -23 32 -41 32 -47
1 -70 -24 -17 -25 -17 -60 14 -20 18 -34 38 -31 45 3 7 1 16 -4 19 -5 3 -9 24
-9 48 -1 23 -2 60 -4 81 -2 33 2 41 19 45 12 4 34 21 49 39 15 17 34 32 44 32
16 0 50 28 74 62 7 9 29 20 49 23 34 7 38 5 44 -19 5 -20 11 -25 24 -21 15 5
17 2 13 -15 -4 -15 7 -34 41 -70 25 -27 46 -53 46 -58 0 -6 17 -26 37 -46 l37
-36 -29 -30 -30 -31 24 -19 c27 -19 51 -17 51 6 0 8 3 14 6 14 8 0 88 -63 96
-77 5 -6 17 -9 28 -6 31 8 24 45 -13 68 -33 21 -51 49 -62 100 -7 29 -6 29 32
-15 25 -27 38 -51 35 -62 -3 -12 1 -18 12 -18 14 0 16 16 16 120 0 119 0 121
-21 110 -23 -13 -69 -6 -69 10 0 10 15 14 34 11 4 -1 19 5 32 14 28 18 33 78
9 109 -20 26 -19 50 0 42 11 -4 15 2 15 25 0 24 -4 30 -16 25 -9 -3 -19 -6
-24 -6 -15 0 -21 -53 -9 -81 17 -41 4 -74 -38 -99 l-37 -22 -72 79 c-40 43
-73 85 -74 94 0 29 -12 28 -34 -3 -26 -40 -42 -45 -51 -18 -6 20 -8 20 -24 6
-22 -20 -41 -20 -69 0 -13 9 -29 13 -37 10 -21 -8 -153 39 -180 64 -18 17 -25
35 -27 74 -3 48 -1 53 34 84 l37 34 46 -18 c45 -17 65 -38 65 -68 0 -10 -9
-16 -22 -16 -21 -1 -22 -2 -5 -14 10 -8 17 -27 17 -49 0 -20 5 -39 11 -42 16
-11 22 1 10 23 -20 38 -4 50 66 54 71 3 80 -1 99 -58 l12 -34 -56 0 c-70 0
-64 -8 10 -14 63 -5 73 3 52 45 -12 24 -11 28 11 49 34 32 31 45 -5 23 -23
-13 -32 -15 -42 -5 -9 9 -5 19 21 46 28 28 32 40 29 72 -3 34 0 39 17 37 11
-2 63 -6 115 -9 52 -4 96 -7 97 -8 1 -1 -1 -35 -4 -74 -5 -56 -9 -72 -19 -68
-8 3 -14 -1 -14 -8 0 -8 5 -16 11 -18 8 -3 7 -16 -2 -46 -10 -35 -10 -50 0
-80 15 -42 29 -62 43 -62 5 0 -1 17 -13 39 -21 39 -22 49 -5 150 7 38 16 52
23 34 3 -7 16 -13 29 -13 20 0 24 5 24 30 0 17 -4 30 -9 30 -5 0 -7 -9 -4 -20
4 -14 0 -20 -11 -20 -9 0 -16 5 -16 10 0 6 -7 10 -15 10 -18 0 -19 20 -4 54 6
13 9 35 6 48 -7 25 -8 25 -197 31 -69 2 -75 1 -74 -18 1 -11 4 -27 8 -36 5
-12 -6 -30 -36 -61 -40 -41 -46 -44 -92 -42 -48 2 -49 2 -51 35 -1 27 8 44 39
80 23 26 63 76 91 112 l49 66 46 -5 c37 -5 52 -13 86 -50 31 -34 47 -44 71
-44 25 0 36 -7 52 -33 21 -35 61 -75 61 -63 0 14 -60 94 -75 99 -8 4 -15 13
-15 20 0 8 -14 20 -30 27 -25 10 -29 17 -24 34 8 23 8 29 -2 70 -9 38 15 56
72 56 44 0 74 8 74 19 0 3 -30 4 -66 1 -91 -8 -120 -44 -90 -111 4 -8 3 -25
-1 -37 l-8 -21 -33 25 c-17 14 -32 34 -32 44 0 10 -4 22 -10 25 -15 9 -12 45
4 51 22 8 38 58 34 105 -3 50 -1 51 73 23 43 -17 47 -17 85 2 29 14 40 26 42
47 4 33 3 33 -43 6 -27 -16 -43 -19 -68 -14 -17 4 -57 8 -88 9 -31 0 -63 7
-73 15 -10 9 -30 12 -56 8 -46 -6 -65 7 -73 49 -10 52 -67 135 -98 141 -53 10
-71 54 -53 128 4 17 11 33 17 36 14 10 -1 29 -24 29 -10 0 -19 6 -19 14 0 29
13 46 34 46 12 0 33 15 49 35 15 19 35 35 43 35 51 0 104 69 104 136 0 29 3
35 16 30 9 -3 18 -6 20 -6 3 0 9 -12 14 -26 9 -22 14 -25 38 -19 22 5 25 4 15
-6 -16 -16 -17 -65 -1 -75 16 -10 38 26 32 53 -5 20 -2 23 20 23 15 0 36 -11
51 -27 29 -32 28 -30 11 -61 -11 -21 -14 -22 -25 -8 -27 33 -51 13 -35 -28 7
-18 39 -22 49 -6 11 17 26 11 59 -24 17 -19 43 -37 59 -41 23 -6 27 -4 27 14
0 14 -6 21 -18 21 -21 0 -42 18 -42 36 0 7 14 15 30 19 21 5 30 12 30 27 0 17
-3 18 -15 8 -24 -20 -89 17 -113 64 l-21 39 31 29 c27 25 29 32 23 68 -6 38
-6 40 19 40 14 0 27 -1 29 -2 1 -1 12 4 25 11 43 23 25 70 -37 98 -25 11 -25
11 -4 12 15 1 21 6 17 15 -14 35 -64 24 -64 -14 0 -10 11 -32 25 -48 14 -17
25 -33 25 -36 0 -3 -16 -6 -35 -6 l-35 0 4 55 c4 46 2 57 -15 69 -18 12 -17
14 23 19 71 8 118 33 118 62 0 26 -9 32 -26 15 -7 -7 -16 -4 -29 10 -10 11
-24 20 -31 20 -7 0 -10 8 -7 20 4 14 0 20 -11 20 -17 0 -22 -25 -7 -34 5 -3
11 -16 14 -28 2 -13 8 -31 12 -40 6 -15 1 -16 -44 -13 -41 4 -53 1 -64 -15
-12 -18 -14 -17 -40 16 -16 19 -34 34 -42 34 -11 0 -13 8 -8 30 7 35 -10 39
-57 15 -32 -17 -39 -39 -15 -49 23 -9 18 -35 -10 -48 -14 -6 -25 -17 -25 -24
0 -6 -17 -16 -37 -21 -26 -6 -43 -18 -55 -39 -18 -30 -18 -32 2 -57 11 -14 20
-39 20 -56 0 -21 5 -31 15 -31 8 0 15 -5 15 -11 0 -6 -10 -9 -22 -7 -19 2 -24
11 -29 46 -3 23 -11 48 -17 54 -18 18 -14 56 8 88 11 15 18 29 16 31 -11 13
-14 122 -4 145 11 24 10 29 -15 48 -40 32 -36 60 12 75 26 7 42 19 47 34 9 29
23 37 54 30 19 -3 33 2 51 21 13 14 32 26 41 26 9 0 20 5 23 10 9 15 -14 40
-36 40 -25 0 -33 18 -20 44 17 31 113 86 150 86 34 0 41 -19 16 -40 -22 -18
-15 -55 10 -55 14 0 21 8 25 30 4 21 12 31 30 35 22 5 25 11 25 50 0 35 4 45
18 48 16 3 17 1 8 -16 -16 -30 -14 -38 14 -56 l25 -16 -4 62 c-3 73 -21 86
-62 47 -21 -20 -28 -21 -44 -11 -17 10 -24 8 -51 -18 -39 -37 -43 -37 -58 -4
-12 28 -7 44 15 44 8 0 14 9 14 20 0 13 -7 20 -20 20 -13 0 -20 7 -20 19 0 26
-15 34 -38 22 -11 -6 -24 -6 -33 0 -11 7 -9 9 7 9 28 0 41 17 46 60 2 26 -1
35 -14 38 -13 3 -18 -3 -18 -21 0 -26 -23 -51 -56 -61 -18 -5 -24 -1 -33 24
-8 26 -15 30 -38 28 -27 -3 -28 -1 -31 42 -2 24 -8 50 -14 57 -13 16 -54 17
-63 3 -11 -18 -14 -80 -4 -86 15 -9 10 -21 -11 -27 -15 -4 -20 -14 -20 -41 0
-33 -2 -35 -19 -25 -22 15 -51 5 -51 -16 0 -8 11 -21 25 -27 21 -9 27 -8 38 7
10 12 20 15 35 11 12 -4 20 -12 16 -17 -3 -5 -2 -18 1 -30 5 -16 12 -19 35
-14 20 4 29 2 33 -9 4 -9 18 -16 32 -16 15 0 24 -5 23 -12 -2 -8 10 -14 27
-16 17 -2 35 -8 41 -13 6 -5 19 -3 31 6 17 12 22 12 26 2 7 -20 -11 -44 -38
-51 -14 -4 -25 -13 -25 -21 0 -8 -7 -15 -15 -15 -21 0 -47 -44 -39 -66 4 -10
14 -27 23 -37 14 -17 14 -18 -11 -12 -15 4 -29 2 -32 -4 -4 -6 -18 -11 -31
-11 -19 0 -26 -7 -33 -32 -8 -31 -12 -33 -50 -32 -37 1 -46 -5 -93 -52 -47
-48 -51 -56 -42 -77 18 -38 -5 -57 -66 -57 -46 0 -51 2 -42 17 6 12 5 26 -6
46 -12 25 -19 28 -48 25 -27 -3 -34 0 -32 13 2 19 -77 89 -101 89 -10 0 -39
-19 -66 -42 -40 -34 -56 -42 -83 -39 -23 2 -35 -2 -39 -13 -3 -9 -15 -16 -25
-16 -14 0 -19 -7 -19 -30 0 -42 -40 -68 -82 -52 -25 9 -32 8 -49 -9 -24 -24
-24 -41 1 -64 11 -10 20 -24 20 -30 0 -22 27 -36 54 -29 33 8 25 23 -9 17 -19
-4 -27 0 -34 20 -5 14 -15 28 -20 32 -16 9 -13 42 4 49 9 3 25 0 35 -6 16 -10
26 -9 55 6 19 11 35 25 35 33 0 19 17 16 29 -4 5 -10 13 -14 17 -10 4 4 -2 17
-13 29 l-21 21 26 22 c21 18 32 21 50 14 19 -8 30 -2 71 36 26 25 57 45 67 45
29 -1 81 -53 80 -81 -1 -22 2 -24 44 -22 32 2 39 0 25 -6 -20 -8 -20 -8 1 -15
16 -5 20 -13 17 -30 -4 -18 4 -30 32 -52 l36 -27 -25 -16 c-14 -9 -26 -25 -26
-36 -1 -36 -61 -88 -75 -65 -10 16 -54 12 -87 -7 -24 -15 -28 -23 -24 -45 5
-23 1 -29 -18 -34 -13 -3 -34 -16 -46 -29 -18 -19 -20 -27 -11 -43 15 -29 16
-28 -33 -41 -64 -16 -88 -14 -56 4 14 8 34 14 45 15 14 0 16 3 8 11 -16 16
-46 3 -90 -37 -29 -27 -39 -31 -41 -20 -6 27 -50 31 -83 7 -37 -27 -117 -43
-159 -31 -34 10 -56 5 -82 -17 -14 -13 -22 -12 -60 10 -38 21 -43 28 -40 56 1
17 -7 49 -18 71 -11 21 -20 52 -20 68 0 19 -10 37 -30 55 -18 17 -30 37 -30
53 0 20 -9 29 -42 44 -24 11 -53 20 -65 20 -12 0 -35 11 -50 24 l-28 25 33 33
c27 29 31 39 26 66 -9 45 -18 47 -58 11 -20 -17 -40 -28 -46 -24 -6 3 -22 -7
-36 -24 -32 -38 -126 -85 -156 -78 -13 3 -54 17 -92 32 -38 14 -76 24 -85 22
-9 -1 16 -14 54 -26 39 -13 79 -30 90 -37 11 -8 27 -14 37 -14 31 0 123 46
155 78 17 18 41 32 52 32 12 0 26 9 33 20 17 27 38 25 38 -4 0 -16 -11 -32
-30 -46 -16 -12 -30 -27 -30 -34 0 -21 59 -70 88 -72 15 -1 44 -9 65 -17 30
-13 37 -21 37 -44 0 -19 10 -37 31 -56 22 -19 29 -32 24 -46 -3 -12 3 -37 15
-61 15 -29 19 -50 14 -75 -6 -32 -4 -35 30 -51 23 -12 33 -21 27 -28 -5 -6
-11 -29 -13 -51 -2 -32 -7 -41 -25 -43 -31 -5 -81 -65 -89 -109 -4 -20 -2 -55
4 -78 7 -26 7 -43 1 -50 -6 -6 2 -13 23 -21 44 -14 46 -30 7 -53 -39 -24 -54
-17 -21 9 15 12 18 20 10 23 -7 2 -20 -2 -29 -10 -14 -12 -21 -8 -57 28 -32
34 -42 52 -47 91 -6 38 -11 48 -26 48 -30 0 -96 66 -103 103 -5 22 -19 40 -46
59 -25 17 -40 36 -40 48 0 30 77 110 106 110 28 0 28 1 13 34 -9 19 -9 29 0
40 10 12 8 18 -13 31 -36 24 -33 40 11 62 42 21 55 43 24 43 -12 0 -21 6 -21
15 0 19 -50 21 -68 3 -10 -10 -17 -10 -31 -1 -26 17 -81 -10 -81 -39 0 -11
-11 -33 -25 -50 -21 -24 -23 -33 -14 -50 10 -19 9 -20 -12 -13 -41 13 -70 8
-96 -16 -40 -38 -47 -66 -23 -96 26 -33 26 -63 1 -63 -14 0 -21 -9 -26 -31 -5
-24 -11 -29 -23 -23 -30 14 -72 7 -95 -14 -22 -21 -24 -21 -60 -4 -22 10 -40
27 -43 40 -4 12 -19 29 -34 37 -16 8 -38 35 -51 59 -19 39 -20 48 -9 75 7 17
9 38 5 48 -5 10 -9 21 -9 25 -1 3 -4 10 -8 13 -4 4 -3 17 3 27 7 14 8 23 1 30
-11 11 4 58 19 58 4 0 34 15 68 34 57 33 65 34 141 32 57 -2 77 1 70 8 -6 6
-43 11 -82 12 -65 0 -78 -3 -140 -37 -82 -45 -102 -41 -133 24 -18 38 -24 42
-56 42 l-35 0 0 46 c1 40 4 47 31 60 26 13 36 14 75 2 36 -11 51 -11 75 -1 16
7 59 13 95 13 l65 0 -2 31 c-2 26 2 32 30 42 19 7 41 12 50 12 9 0 17 5 17 11
0 6 17 9 42 7 42 -3 42 -2 48 34 8 44 26 68 51 68 20 0 25 25 10 49 -6 9 -4
23 7 40 10 15 17 45 17 76 0 44 3 50 22 53 13 2 43 29 72 66 46 58 50 66 45
104 -4 40 -3 42 21 42 56 0 105 60 105 128 0 32 24 61 35 42 10 -16 61 -12 76
6 7 9 12 31 12 50 -1 39 -34 73 -70 74 -30 0 -38 16 -12 23 15 4 28 -2 43 -19
39 -46 78 0 42 51 -7 11 -13 42 -13 69 0 51 17 80 54 89 10 3 -8 5 -40 6 -37
1 -56 -3 -52 -9 3 -5 2 -10 -4 -10 -5 0 -13 5 -16 10 -3 6 -18 10 -33 10 l-27
0 33 -20 c17 -11 32 -24 32 -28 0 -17 -13 -21 -33 -10 -18 9 -25 6 -54 -28
-38 -43 -36 -47 46 -69 37 -10 42 -14 26 -19 -11 -4 -34 -14 -52 -23 -18 -9
-39 -13 -48 -9 -10 4 -15 2 -13 -6 2 -6 33 -18 68 -27 45 -12 66 -22 68 -34 3
-13 -4 -17 -28 -17 -41 0 -79 -42 -80 -90 0 -44 -8 -55 -41 -55 -26 -1 -26 0
-12 33 11 26 11 41 2 72 -14 46 -24 52 -75 38 -22 -5 -55 -10 -75 -9 -34 1
-39 -3 -63 -44 -24 -40 -31 -45 -62 -45 -59 0 -56 55 4 62 35 4 42 36 11 58
-22 18 -22 18 16 16 39 -1 39 0 47 43 4 24 9 45 11 47 2 2 14 -6 26 -17 21
-19 21 -22 7 -45 -22 -32 -20 -41 4 -19 11 10 20 28 20 41 0 13 -9 28 -20 34
-11 6 -20 19 -20 29 0 15 7 19 32 17 25 -1 35 4 44 24 17 35 27 100 16 100 -5
0 -12 -19 -16 -42 -9 -53 -21 -68 -57 -68 -16 0 -32 -7 -38 -17 -10 -17 -12
-17 -25 0 -10 13 -21 17 -35 12 -15 -4 -21 -2 -21 9 0 21 31 36 75 36 26 0 43
7 60 26 30 32 33 49 5 32 -15 -10 -26 -10 -53 0 -18 7 -42 12 -53 12 -25 -1
41 -30 67 -30 21 0 27 -19 7 -21 -97 -8 -155 8 -144 38 4 9 -4 13 -24 13 -22
0 -28 -4 -24 -15z m490 -100 c18 -14 17 -14 -13 -15 -23 0 -33 5 -33 15 0 19
21 19 46 0z m-486 -54 c0 -5 -7 -14 -15 -21 -13 -10 -15 -9 -15 9 0 12 6 21
15 21 8 0 15 -4 15 -9z m-48 -118 c2 -16 -8 -29 -39 -52 -46 -33 -50 -33 -32
2 12 22 61 79 65 74 1 -1 4 -12 6 -24z m242 -91 c3 -5 -4 -28 -16 -51 -15 -32
-18 -45 -9 -54 6 -6 11 -19 11 -29 0 -10 16 -26 38 -37 20 -11 33 -20 27 -21
-27 -1 -37 -17 -25 -40 9 -17 9 -25 -3 -38 -8 -9 -12 -23 -10 -29 3 -7 0 -13
-6 -13 -6 0 -11 7 -11 15 0 20 -44 20 -65 -1 -17 -18 -45 -12 -45 10 0 16 21
26 57 26 21 0 24 4 20 22 -4 12 -2 28 4 34 7 9 5 16 -10 24 -12 6 -21 19 -21
29 0 10 -7 24 -15 31 -20 17 -19 26 6 49 11 10 21 26 23 34 4 32 38 58 50 39z
m136 -98 c0 -8 -9 -14 -20 -14 -18 0 -19 3 -10 20 12 22 30 18 30 -6z m-660
-74 c0 -5 -4 -10 -10 -10 -5 0 -10 5 -10 10 0 6 5 10 10 10 6 0 10 -4 10 -10z
m42 -67 c-7 -3 -31 -20 -53 -39 -23 -19 -42 -34 -44 -34 -5 0 1 40 10 67 5 16
16 23 44 25 37 3 68 -10 43 -19z m112 -67 c-2 -7 -13 -17 -24 -24 -18 -11 -20
-10 -20 16 0 16 3 31 6 35 9 9 43 -15 38 -27z m292 -61 c-4 -18 -2 -44 3 -58
13 -33 7 -37 -35 -24 -38 12 -38 19 -2 90 22 44 43 40 34 -8z m1849 -4 c-3 -6
-11 -11 -17 -11 -6 0 -6 6 2 15 14 17 26 13 15 -4z m-1979 -5 c3 -8 0 -25 -7
-38 -11 -20 -14 -20 -17 -5 -2 9 -11 17 -19 17 -14 0 -14 3 2 20 21 24 34 25
41 6z m-271 -146 c3 -5 -1 -10 -9 -10 -9 0 -16 5 -16 10 0 6 4 10 9 10 6 0 13
-4 16 -10z m-170 -204 c50 -49 53 -56 26 -56 -10 0 -24 -7 -31 -15 -16 -19
-54 -19 -74 0 -18 19 -32 83 -20 95 5 4 18 10 29 13 11 3 21 5 22 6 1 0 23
-19 48 -43z m-173 -25 c-2 -43 5 -49 38 -31 29 15 54 -57 45 -132 -7 -55 -9
-59 -42 -73 -49 -21 -73 -19 -73 4 0 11 -11 33 -24 48 l-25 28 26 21 c25 20
25 21 9 52 -13 25 -14 37 -6 52 6 12 8 29 5 40 -4 12 0 22 12 29 29 17 38 7
35 -38z m-79 25 c17 -13 23 -47 11 -59 -4 -3 -19 6 -34 21 -20 19 -25 31 -18
40 13 15 18 15 41 -2z m-83 -10 c0 -8 -7 -16 -15 -20 -10 -4 -15 1 -15 14 0
11 7 20 15 20 8 0 15 -6 15 -14z m-50 -41 c7 -8 10 -30 8 -50 -2 -22 1 -36 9
-39 10 -4 13 8 13 44 0 45 2 50 26 56 37 9 71 -25 55 -55 -7 -11 -20 -21 -30
-21 -10 0 -24 -7 -31 -15 -7 -8 -9 -15 -4 -15 17 0 -34 -37 -90 -64 -47 -23
-60 -26 -67 -15 -5 8 -6 21 -3 29 3 8 11 29 16 45 20 57 48 74 48 30 0 -15 6
-25 15 -25 14 0 14 13 -1 88 -5 26 17 30 36 7z m-112 -82 c-6 -21 -13 -42 -16
-48 -9 -15 -2 -56 15 -81 21 -33 7 -51 -21 -25 -11 11 -34 25 -51 31 -29 11
-29 12 -11 25 16 12 17 17 6 30 -17 21 3 46 22 27 16 -16 28 -15 28 3 0 8 -4
15 -10 15 -5 0 -1 13 8 30 25 44 43 40 30 -7z m266 15 c8 -13 4 -21 -15 -37
-20 -17 -22 -23 -12 -40 11 -18 8 -21 -32 -38 -25 -10 -45 -22 -45 -26 0 -9
38 0 55 13 31 22 45 19 59 -15 12 -29 20 -35 45 -35 l30 0 -2 -91 c-2 -77 1
-93 17 -107 17 -16 15 -17 -50 -24 -38 -4 -87 -10 -109 -14 l-40 -6 28 26 c22
20 26 30 18 43 -7 14 -3 21 21 36 17 10 28 20 25 23 -3 3 -17 -2 -31 -12 -29
-19 -35 -17 -41 15 -6 31 -14 41 -42 52 -18 7 -22 13 -15 22 12 16 21 67 12
67 -4 0 -10 12 -13 28 -6 26 4 42 61 95 7 6 21 19 30 29 20 19 32 18 46 -4z
m232 -32 c-6 -49 -39 -96 -66 -96 -6 0 -9 34 -9 75 l1 75 40 -2 40 -1 -6 -51z
m84 -46 c11 -11 20 -29 20 -39 0 -11 12 -28 27 -39 23 -17 25 -22 14 -35 -7
-9 -10 -21 -6 -27 12 -20 19 -120 13 -187 -2 -23 -1 -40 3 -37 4 2 11 -1 15
-7 5 -8 -1 -10 -22 -6 -37 7 -65 -8 -57 -31 3 -9 -7 -2 -22 16 -15 17 -36 32
-45 32 -9 0 -34 11 -54 25 -20 14 -43 25 -50 25 -7 0 -21 10 -32 23 -18 19
-20 35 -19 116 2 102 -2 96 61 104 24 4 84 50 84 66 0 8 16 16 43 20 4 0 16
-8 27 -19z m2056 8 c4 -5 1 -8 -6 -8 -7 0 -22 -8 -32 -17 -18 -16 -20 -15 -43
8 l-25 24 49 0 c27 0 53 -3 57 -7z m-2527 -50 c8 -21 4 -24 -33 -34 -22 -6
-44 -9 -48 -7 -18 9 -6 30 25 46 43 21 46 21 56 -5z m2588 5 c2 -6 -5 -14 -16
-18 -26 -8 -27 -27 -1 -50 l20 -18 -20 -19 c-11 -10 -20 -23 -20 -29 0 -5 -16
-26 -35 -45 -22 -21 -34 -42 -31 -52 17 -66 17 -71 -17 -109 -19 -21 -39 -48
-46 -60 -6 -13 -15 -22 -19 -21 -4 1 -26 -4 -50 -12 -34 -11 -42 -18 -39 -31
6 -22 -9 -36 -43 -41 -15 -2 -30 -14 -37 -30 -10 -19 -25 -29 -61 -38 -26 -6
-56 -18 -67 -26 -19 -14 -19 -16 -3 -28 16 -12 15 -15 -12 -35 -26 -19 -35
-20 -67 -12 -35 10 -40 8 -73 -22 -49 -45 -50 -48 -48 -89 2 -20 -1 -37 -7
-38 -5 0 -11 17 -13 37 -4 40 -26 73 -49 73 -7 0 -13 5 -13 10 0 6 9 10 20 10
27 0 86 54 117 108 l27 45 -22 15 c-27 18 -29 35 -2 27 11 -4 20 -2 20 4 0 14
-47 14 -55 0 -4 -6 3 -21 15 -34 l22 -23 -31 -45 c-36 -53 -92 -91 -120 -82
-12 3 -23 0 -28 -8 -4 -7 -24 -21 -43 -31 -40 -20 -97 -14 -145 13 -23 13 -36
15 -53 8 -12 -6 -22 -14 -22 -19 0 -4 -7 -8 -15 -8 -22 0 -35 33 -35 88 0 57
21 90 81 128 35 22 39 29 39 65 0 39 1 41 26 35 19 -5 31 -2 44 12 16 17 30
19 96 16 68 -3 82 -1 124 23 53 30 80 26 80 -12 0 -14 7 -28 15 -31 26 -10 17
-23 -23 -34 -39 -10 -91 -54 -79 -67 4 -3 20 6 35 20 16 15 33 27 40 27 22 0
62 23 62 36 0 7 -9 19 -20 27 -21 14 -21 14 2 29 13 9 44 19 68 22 25 4 60 12
78 18 28 8 33 14 27 32 -13 42 -9 50 33 74 35 20 41 27 36 47 -5 19 0 27 27
41 25 13 37 14 51 5 10 -6 24 -11 32 -11 25 0 66 41 66 65 0 30 55 64 73 46
16 -16 31 -13 17 4 -6 8 -9 19 -5 25 9 14 87 9 92 -7z m-2842 -23 c-3 -5 -10
-10 -16 -10 -5 0 -9 5 -9 10 0 6 7 10 16 10 8 0 12 -4 9 -10z m-122 -36 c11 3
26 1 31 -3 6 -5 20 -11 31 -14 11 -3 -5 -5 -35 -4 -51 2 -55 4 -57 27 -1 16 0
19 4 7 3 -13 11 -17 26 -13z m232 -4 c21 -23 11 -41 -35 -65 -23 -12 -27 -11
-38 5 -7 12 -18 17 -27 14 -8 -4 -22 -1 -30 6 -13 11 -11 16 17 36 41 29 89
31 113 4z m155 -4 c0 -42 -82 -81 -120 -56 -13 8 -12 13 8 32 12 13 41 28 65
35 23 6 43 11 45 12 1 1 2 -10 2 -23z m2990 -17 c0 -5 -8 -9 -17 -9 -9 0 -24
-7 -34 -16 -20 -18 -39 -11 -39 13 0 11 6 14 26 9 20 -5 25 -4 21 7 -4 10 1
13 19 9 13 -2 24 -8 24 -13z m-3375 -51 c14 -13 -31 -48 -62 -48 -20 0 -24 4
-18 18 4 9 10 25 12 34 4 14 12 16 32 12 14 -4 31 -11 36 -16z m134 3 c3 -1
-4 -8 -15 -16 -18 -13 -18 -14 13 -21 26 -5 32 -11 35 -40 4 -37 -9 -48 -48
-38 -24 6 -34 24 -13 24 5 0 7 5 4 10 -4 6 -15 8 -26 5 -13 -4 -19 -2 -19 8 0
8 -8 18 -17 22 -17 6 -17 7 -1 16 9 5 15 16 12 24 -5 11 3 13 33 11 21 -2 40
-4 42 -5z m272 -6 c36 -19 29 -35 -15 -35 -18 0 -41 -7 -52 -15 -28 -21 -34
-19 -34 13 0 23 6 30 33 39 17 5 33 11 35 12 2 0 16 -6 33 -14z m-116 -35 c3
-11 3 -29 0 -40 -8 -26 -3 -25 48 4 23 13 56 23 72 22 26 -1 31 -6 39 -38 8
-31 6 -41 -9 -58 l-18 -20 -23 21 c-12 11 -39 25 -61 30 -48 11 -113 12 -113
1 0 -11 -55 -51 -77 -55 -10 -2 -25 -7 -33 -10 -8 -3 -43 -7 -78 -10 -81 -4
-93 -20 -50 -64 17 -18 30 -34 27 -36 -2 -2 -30 -23 -63 -47 -36 -26 -54 -45
-47 -49 21 -13 -24 -55 -83 -80 -32 -13 -60 -20 -63 -17 -4 4 8 20 27 37 31
28 35 30 46 15 21 -29 26 0 7 41 -9 21 -19 41 -21 46 -2 4 3 7 12 7 9 0 16 5
16 11 0 6 -9 8 -20 4 -11 -4 -20 -2 -20 4 0 6 -4 11 -10 11 -5 0 -10 -11 -10
-24 0 -25 -28 -44 -35 -23 -2 6 -6 31 -9 53 -7 51 6 65 62 62 51 -2 89 22 109
70 l16 37 9 -27 c12 -33 9 -33 78 -7 30 12 78 25 107 29 70 11 74 14 67 62 -8
47 3 58 58 58 28 0 38 -5 43 -20z m-267 -80 c-15 -23 -35 -33 -43 -20 -5 8 32
40 47 40 5 0 3 -9 -4 -20z m363 -43 c7 -11 6 -17 -1 -17 -5 0 -10 -20 -10 -45
0 -31 -5 -47 -15 -51 -8 -4 -12 -10 -9 -15 8 -14 38 -11 60 6 18 14 17 15 -11
8 -27 -6 -29 -5 -17 10 8 9 12 29 10 44 -3 27 -1 28 44 31 46 3 48 2 62 -32 8
-20 21 -36 29 -36 27 0 39 -25 26 -54 -11 -24 -9 -30 22 -62 l34 -35 -25 -21
c-14 -11 -24 -25 -22 -30 3 -12 -52 17 -67 36 -8 9 -27 16 -43 16 -23 0 -40
11 -76 52 -26 28 -50 60 -54 70 -6 15 -16 19 -46 17 -34 -3 -43 2 -72 34 -32
37 -32 38 -14 59 42 46 69 55 130 43 33 -6 60 -18 65 -28z m319 -8 c0 -5 21
-16 48 -25 61 -22 132 -102 106 -121 -9 -6 -14 -20 -12 -30 3 -10 -1 -30 -9
-45 -7 -15 -10 -33 -7 -41 3 -10 -4 -16 -25 -20 -26 -5 -31 -11 -31 -34 0 -20
14 -40 54 -78 43 -40 83 -99 114 -167 2 -5 -3 -8 -11 -8 -8 0 -35 22 -59 48
-48 54 -88 73 -88 41 0 -10 -16 -33 -35 -50 -19 -18 -35 -40 -35 -51 0 -22
-12 -23 -50 -3 -16 8 -30 11 -33 7 -2 -4 -2 -1 -1 6 2 7 -21 28 -50 48 -44 29
-52 39 -49 59 3 13 0 31 -5 42 -10 16 -1 38 33 91 1 1 15 -4 30 -12 16 -8 32
-13 36 -11 11 7 20 -42 13 -72 l-6 -28 17 24 c15 19 16 29 7 59 -6 20 -10 38
-8 40 2 2 22 -6 45 -17 46 -24 55 -26 45 -10 -3 6 -25 19 -48 29 -36 17 -42
17 -57 4 -14 -12 -22 -13 -38 -4 -25 13 -27 33 -5 50 36 31 37 49 2 80 l-32
30 17 35 17 36 -39 16 c-42 16 -59 53 -36 76 13 14 185 19 185 6z m2448 -44
c-3 -3 -13 7 -23 22 l-17 28 23 -22 c12 -12 20 -25 17 -28z m-2998 15 c0 -5
-4 -10 -9 -10 -6 0 -13 5 -16 10 -3 6 1 10 9 10 9 0 16 -4 16 -10z m22 -34
c13 -8 30 -24 38 -36 10 -14 26 -20 52 -20 21 0 38 -4 38 -9 0 -4 18 -26 40
-47 47 -46 50 -61 13 -70 -86 -19 -103 -26 -103 -40 0 -25 -19 -5 -42 43 -11
24 -31 48 -43 53 -13 5 -27 23 -33 40 -6 17 -27 50 -47 74 l-35 43 49 -8 c27
-4 60 -14 73 -23z m2751 7 c-7 -2 -13 -12 -13 -20 0 -9 -3 -14 -6 -10 -10 10
4 37 18 36 10 0 10 -2 1 -6z m38 -15 c0 -10 2 -10 6 0 7 18 33 14 32 -5 0 -11
-3 -13 -6 -5 -2 6 -10 9 -16 5 -16 -10 -57 -12 -57 -2 0 7 17 17 33 18 4 1 7
-5 8 -11z m89 0 c0 -13 38 -9 43 5 3 9 8 9 18 -2 8 -8 9 -11 2 -7 -6 3 -14 2
-18 -4 -8 -13 -52 -13 -61 1 -4 8 -9 7 -15 -2 -7 -11 -9 -10 -9 3 0 11 7 16
20 15 11 -1 20 -5 20 -9z m-220 -57 c-5 -11 -26 -29 -46 -41 -25 -16 -32 -26
-25 -33 6 -6 11 -23 11 -38 0 -15 12 -42 26 -59 l27 -31 -27 -28 c-43 -44 -30
-113 39 -206 12 -16 21 -35 18 -41 -2 -6 3 -17 12 -24 8 -7 15 -22 15 -33 0
-20 0 -20 23 1 l23 21 19 -35 c15 -29 24 -35 43 -31 19 4 28 -3 48 -34 18 -30
31 -39 52 -39 15 -1 42 -13 59 -29 l33 -27 -35 -17 c-47 -22 -57 -22 -85 8
-13 14 -34 25 -46 25 -37 0 -38 18 -2 29 32 9 32 9 -15 10 -43 1 -54 6 -85 38
l-37 37 28 10 c15 5 27 13 27 18 0 12 -24 10 -37 -3 -17 -17 -103 67 -103 103
0 22 -6 31 -26 38 -33 13 -87 3 -118 -21 -13 -11 -36 -19 -50 -19 -18 0 -30
-9 -41 -30 -31 -60 -102 -62 -140 -4 -11 18 -25 24 -50 24 -30 0 -35 4 -41 28
-3 15 -15 44 -26 66 l-21 38 39 39 c38 37 40 38 76 27 32 -9 41 -8 73 12 31
19 36 27 33 51 -4 26 -1 29 28 35 40 7 94 40 94 57 0 7 21 18 46 25 46 13 132
64 147 89 13 21 29 16 17 -6z m-2710 -37 c8 -22 21 -39 36 -44 26 -10 64 -84
64 -124 0 -12 9 -29 20 -39 24 -20 26 -53 4 -61 -12 -5 -15 -14 -11 -36 4 -19
1 -34 -9 -45 -18 -18 -26 -19 -42 -3 -14 14 -42 -6 -42 -31 0 -22 -97 -114
-106 -100 -3 6 -17 8 -29 5 -13 -3 -36 -3 -53 0 -24 5 -32 14 -41 45 -16 52
-49 107 -72 119 -10 6 -16 16 -13 23 3 8 -9 18 -28 25 -18 6 -39 21 -46 33
-18 28 -3 45 63 75 28 12 66 38 84 58 42 44 61 45 89 7 12 -16 46 -41 76 -54
64 -30 146 -45 146 -28 0 6 -13 11 -29 11 -51 0 -143 42 -183 83 -40 41 -40
52 -5 68 12 6 40 20 62 33 22 13 43 22 47 19 3 -2 12 -19 18 -39z m3322 -19
c0 -5 -5 -11 -11 -13 -6 -2 -11 4 -11 13 0 9 5 15 11 13 6 -2 11 -8 11 -13z
m-1942 -36 c0 -5 -8 -9 -17 -8 -32 3 -40 -1 -51 -25 -6 -14 -34 -43 -62 -65
-40 -32 -60 -41 -90 -41 -28 0 -47 -7 -69 -27 -27 -26 -29 -32 -24 -80 3 -32
1 -53 -5 -53 -6 0 -12 26 -14 58 -4 48 -1 60 16 74 20 16 20 17 3 36 -25 28
-50 113 -37 126 10 10 14 -1 12 -29 -2 -23 44 -100 58 -98 62 9 116 26 123 38
4 8 15 15 22 15 8 0 15 7 15 15 0 8 5 15 11 15 13 0 33 20 42 43 7 19 67 25
67 6z m-997 -67 c20 -14 37 -29 37 -34 0 -6 -13 -30 -30 -55 -16 -24 -30 -46
-30 -47 0 -2 9 -6 20 -9 16 -4 18 -11 13 -41 -4 -29 -2 -37 13 -42 37 -14 74
-46 74 -65 0 -10 -6 -19 -14 -19 -8 0 -29 -12 -46 -27 -26 -21 -33 -24 -41
-12 -5 8 -7 20 -4 27 3 6 8 20 12 29 5 13 2 15 -11 10 -12 -5 -19 1 -27 19 -8
23 -14 26 -42 21 -28 -4 -41 1 -87 40 -30 25 -55 50 -56 56 -17 99 -22 141
-18 148 2 4 26 11 52 15 26 3 54 10 62 14 22 13 82 -1 123 -28z m605 -136
c-12 -9 -18 -27 -18 -55 0 -22 -4 -41 -10 -41 -5 0 -10 20 -10 45 0 33 -4 45
-15 45 -8 0 -15 5 -15 10 0 6 19 10 43 10 37 -1 40 -2 25 -14z m162 -16 c0 -5
-9 -10 -20 -10 -11 0 -23 -7 -26 -15 -8 -19 15 -48 33 -41 7 3 13 1 13 -4 0
-19 -49 -10 -60 11 -9 16 -8 26 5 45 15 23 55 34 55 14z m86 -39 c0 -43 0 -43
-17 -22 -22 27 -29 27 -30 -1 -1 -13 -5 -5 -8 17 -7 43 2 57 34 53 16 -3 20
-11 21 -47z m74 39 c0 -5 -7 -10 -15 -10 -8 0 -15 -4 -15 -10 0 -5 11 -10 25
-10 15 0 25 6 25 14 0 8 10 18 22 22 36 11 64 -46 36 -74 -18 -18 -46 -14 -60
8 -16 25 -38 26 -31 2 3 -12 -1 -19 -10 -19 -16 0 -33 60 -22 77 8 13 45 13
45 0z m156 -38 l0 -44 -18 24 -18 23 0 -23 c0 -13 -4 -20 -10 -17 -11 7 -14
68 -3 79 4 4 16 6 28 4 16 -2 20 -11 21 -46z m-439 31 c-12 -3 -16 -11 -12
-23 3 -11 0 -20 -10 -24 -11 -4 -15 2 -15 24 0 26 3 30 28 29 17 -1 21 -3 9
-6z m-873 -12 c3 -5 -1 -11 -9 -15 -9 -3 -15 0 -15 9 0 16 16 20 24 6z m35
-34 c8 -10 7 -19 -4 -33 -19 -25 -19 -42 1 -61 9 -10 14 -29 12 -52 -3 -36 -3
-36 -46 -33 -38 2 -49 -2 -83 -33 -21 -19 -47 -35 -57 -35 -9 -1 -34 -7 -54
-14 -41 -15 -48 -9 -48 40 0 32 48 75 73 68 15 -5 18 -2 13 14 -5 14 1 24 19
36 15 10 25 26 25 40 0 22 3 24 40 19 35 -5 41 -3 49 20 9 22 22 34 42 36 4 1
12 -5 18 -12z m547 -43 c37 -41 42 -50 32 -68 -16 -29 -51 -80 -62 -87 -4 -4
-3 -9 2 -13 6 -3 21 8 33 26 12 18 24 35 25 37 2 2 17 -13 33 -32 36 -41 95
-58 118 -34 13 12 6 19 -51 51 -36 20 -66 41 -66 47 0 5 11 2 25 -7 18 -12 29
-13 38 -6 7 6 42 12 79 13 64 2 67 1 115 -39 26 -23 68 -50 93 -59 25 -9 52
-22 61 -30 8 -7 25 -13 37 -13 12 0 22 -4 22 -8 0 -16 -48 -35 -74 -30 -30 6
-33 0 -9 -17 21 -15 57 -4 91 27 l22 21 1 -54 c1 -30 0 -62 -1 -72 -1 -10 10
-27 24 -38 48 -38 50 -54 12 -95 -32 -34 -66 -107 -66 -141 0 -17 30 -28 98
-38 l52 -7 0 29 c0 36 25 73 51 73 26 0 24 -13 -3 -25 -20 -9 -23 -18 -23 -63
0 -48 -3 -56 -30 -75 -16 -11 -51 -40 -77 -64 -26 -24 -52 -43 -57 -43 -14 0
-97 129 -111 174 -7 21 -37 75 -68 120 -44 64 -58 92 -63 136 -6 44 -5 60 9
80 9 14 26 43 37 66 l20 40 -20 17 c-20 17 -20 17 5 15 20 -3 26 -11 35 -48
11 -43 12 -44 18 -17 5 17 3 39 -5 55 -12 24 -19 27 -66 27 -43 0 -55 4 -68
23 -9 13 -13 29 -11 36 4 9 -2 14 -16 15 -61 4 -88 3 -95 -3 -10 -10 36 -46
59 -46 10 0 25 -10 33 -22 9 -13 32 -27 52 -33 60 -17 44 -36 -56 -66 -37 -12
-46 -20 -54 -46 -11 -39 -35 -43 -74 -13 -17 14 -29 17 -36 10 -21 -21 -34 -9
-47 40 -16 61 -39 87 -121 139 -32 19 -38 28 -38 58 0 27 8 41 35 66 19 17 35
37 35 44 0 24 23 13 66 -33z m-434 -16 c18 2 28 -2 28 -12 0 -7 7 -19 15 -26
21 -18 19 -41 -5 -47 -33 -9 -23 -23 12 -16 28 5 31 4 24 -13 -18 -44 -25 -72
-31 -126 -5 -45 -14 -67 -41 -100 -71 -89 -81 -94 -109 -52 -12 18 -15 36 -11
60 9 44 -13 94 -61 137 -35 33 -37 37 -22 52 12 13 21 14 43 5 15 -5 34 -10
41 -10 15 0 56 69 54 92 0 10 -2 10 -6 0 -3 -9 -12 -3 -25 19 -17 27 -18 36
-7 55 l12 23 30 -21 c17 -13 43 -21 59 -20z m723 22 c3 -5 -1 -10 -9 -10 -9 0
-16 5 -16 10 0 6 4 10 9 10 6 0 13 -4 16 -10z m575 -33 c16 6 48 9 70 6 51 -7
53 -32 6 -68 -32 -24 -35 -25 -74 -11 -22 8 -43 11 -47 8 -4 -4 -5 5 -3 21 3
15 1 30 -3 33 -5 3 -9 13 -9 22 1 15 3 14 15 -3 13 -17 19 -18 45 -8z m1034 7
c9 -3 16 -15 16 -26 0 -25 35 -75 58 -82 10 -4 24 -22 30 -41 7 -19 25 -45 40
-58 15 -13 36 -41 47 -62 16 -31 34 -47 85 -72 36 -18 67 -33 70 -33 3 0 18
11 34 25 33 28 43 27 27 -4 -17 -30 -45 -42 -106 -44 -60 -3 -87 -19 -67 -39
17 -17 15 -58 -3 -58 -8 0 -15 5 -15 10 0 18 -29 10 -40 -11 -8 -14 -8 -29 -1
-49 14 -43 -17 -80 -68 -80 -42 0 -81 -23 -81 -48 -1 -15 -2 -15 -11 1 -7 12
-7 33 1 70 18 78 11 108 -29 132 -19 11 -49 35 -67 53 -18 17 -40 32 -48 32
-13 0 -16 12 -14 64 l2 64 85 9 c47 4 95 7 106 6 11 -2 33 -4 49 -6 16 -2 34
-12 40 -23 16 -28 87 -96 94 -89 3 3 -10 20 -29 39 -19 19 -44 48 -57 65 l-23
30 -127 -4 c-70 -2 -135 -7 -143 -10 -12 -4 -23 4 -37 27 -39 64 -14 178 40
178 10 0 35 9 55 20 39 21 60 24 87 14z m-2079 -56 c14 -6 25 -18 25 -26 0 -8
14 -27 31 -43 22 -21 29 -34 24 -49 -4 -12 2 -42 16 -74 17 -43 25 -52 40 -49
14 4 19 0 19 -16 0 -20 -5 -21 -82 -21 -46 0 -89 4 -97 9 -9 6 -23 5 -37 -1
-18 -8 -30 -6 -57 11 -19 11 -45 21 -57 21 -22 0 -22 2 -16 63 10 85 40 136
96 165 51 25 60 26 95 10z m1753 -35 c18 -18 28 -33 22 -33 -5 0 -10 -5 -10
-11 0 -8 4 -8 13 -1 6 6 29 13 51 17 l38 8 -7 -32 c-5 -25 0 -42 30 -90 27
-46 34 -66 29 -86 -5 -21 -11 -25 -29 -21 -15 4 -28 -1 -40 -14 -13 -15 -21
-17 -31 -9 -10 8 -16 6 -25 -9 -19 -30 -60 -14 -83 31 -10 21 -31 48 -47 59
-20 15 -29 30 -29 50 0 43 31 172 43 180 15 9 38 -2 75 -39z m-1172 17 c43
-21 35 -26 -15 -9 -17 6 -31 15 -31 20 0 12 1 12 46 -11z m1754 -6 c0 -8 -4
-12 -10 -9 -5 3 -10 10 -10 16 0 5 5 9 10 9 6 0 10 -7 10 -16z m-30 -9 c0 -8
-4 -15 -10 -15 -5 0 -10 7 -10 15 0 8 5 15 10 15 6 0 10 -7 10 -15z m-2970
-52 c0 -21 7 -50 14 -65 13 -25 5 -51 -8 -30 -3 5 -25 7 -50 5 l-45 -4 -27 56
c-33 68 -28 75 59 75 l57 0 0 -37z m-136 -43 c32 -60 39 -64 88 -61 35 2 38 0
38 -24 0 -15 -5 -25 -12 -24 -54 7 -94 -20 -100 -66 -3 -26 -7 -30 -39 -33
-29 -2 -41 2 -55 20 -11 13 -35 36 -55 51 -30 23 -36 33 -34 59 2 22 10 35 29
45 14 7 26 18 26 23 0 6 9 10 20 10 13 0 24 10 30 25 14 38 34 30 64 -25z
m411 -128 c0 -31 6 -68 13 -80 8 -13 12 -24 10 -25 -2 -1 -17 -12 -35 -25 -35
-24 -58 -28 -68 -12 -4 7 -12 7 -25 0 -10 -5 -39 -10 -64 -10 -40 0 -46 3 -46
21 0 12 -8 27 -17 34 -15 11 -15 15 6 50 l22 38 -21 29 c-16 22 -18 32 -10 48
12 23 74 52 93 44 7 -2 22 5 32 16 l19 21 45 -46 c44 -43 46 -48 46 -103z
m1187 78 c-2 -22 0 -40 6 -40 5 0 12 -9 15 -21 5 -18 3 -18 -11 -7 -9 7 -20
18 -24 23 -10 13 -10 69 -1 78 14 15 18 5 15 -33z m1828 -43 c0 -34 -6 -49
-26 -68 -17 -16 -24 -31 -21 -47 3 -17 -1 -24 -20 -28 -15 -4 -49 -41 -95
-103 -38 -53 -84 -108 -100 -123 l-30 -27 -44 22 c-38 18 -42 23 -30 36 8 9
16 30 18 46 2 24 8 31 31 33 21 3 33 14 52 52 23 45 28 49 53 44 21 -4 38 3
74 31 41 32 46 40 37 57 -8 14 -8 23 0 31 6 6 11 21 11 33 0 27 34 54 67 54
20 0 23 -5 23 -43z m-1740 23 c0 -5 -2 -10 -4 -10 -3 0 -8 5 -11 10 -3 6 -1
10 4 10 6 0 11 -4 11 -10z m-1511 -48 c7 -13 4 -28 -12 -57 -12 -21 -25 -38
-30 -38 -4 0 -29 3 -56 7 -44 6 -49 9 -44 29 9 35 23 47 54 47 31 0 40 -25 17
-48 -6 -6 -9 -14 -5 -18 12 -12 26 7 33 44 10 57 24 69 43 34z m2297 5 c19
-61 41 -88 80 -103 26 -10 65 -39 97 -73 81 -85 114 -159 88 -200 -8 -12 -11
-8 -16 15 -28 131 -41 149 -99 133 -64 -18 -84 5 -50 56 15 23 15 25 0 25 -9
0 -16 -6 -16 -14 0 -30 -20 -26 -26 4 -4 18 -12 29 -19 26 -6 -2 -16 -1 -22 2
-9 6 -73 127 -73 139 0 4 54 -6 56 -10z m-1803 -34 c25 -13 60 -17 161 -17
129 -1 130 -1 136 -25 4 -17 25 -34 70 -58 56 -30 72 -34 124 -31 l59 3 37
-90 c65 -160 86 -192 143 -229 29 -19 62 -46 74 -60 28 -31 42 -32 77 -5 14
11 26 17 26 13 0 -13 -33 -44 -47 -44 -17 0 -52 -75 -53 -110 0 -35 -57 -103
-81 -97 -24 7 -24 2 6 -77 29 -77 29 -76 12 -76 -7 0 -26 23 -42 50 -28 49
-44 57 -92 51 -7 -1 -13 7 -13 18 0 11 -8 24 -17 30 -17 9 -16 11 1 30 23 25
82 28 112 6 24 -18 34 -19 34 -1 0 36 -121 48 -156 15 -18 -17 -38 -22 -93
-24 -67 -3 -73 -1 -115 31 -26 20 -61 63 -89 109 -43 73 -45 78 -41 145 3 62
1 71 -19 85 -25 18 -58 20 -74 4 -8 -8 -17 -8 -33 1 -16 9 -25 9 -33 1 -19
-19 -27 -12 -27 24 0 22 5 35 13 35 19 0 9 55 -13 75 -24 21 -100 33 -100 15
0 -7 7 -10 15 -6 42 16 102 -46 76 -78 -9 -11 -11 -34 -6 -78 5 -49 3 -67 -9
-83 -9 -11 -32 -42 -53 -69 l-36 -49 22 -18 c19 -16 20 -21 10 -41 -9 -16 -9
-23 -1 -26 8 -2 5 -17 -8 -43 -17 -33 -25 -39 -52 -39 -17 0 -37 -7 -44 -17
-13 -17 -16 -16 -39 10 -13 15 -30 46 -36 68 -11 35 -16 40 -36 36 -14 -3 -23
1 -23 8 0 8 8 11 19 8 13 -3 20 2 24 19 12 42 7 77 -11 90 -10 7 -19 25 -20
41 -5 56 -6 102 -2 116 3 8 -2 16 -10 18 -13 3 -16 -7 -15 -52 0 -43 -3 -55
-16 -55 -8 0 -28 -13 -44 -30 -16 -16 -36 -30 -45 -30 -9 0 -21 -5 -27 -11
-17 -17 -37 -5 -61 35 -21 35 -21 36 -2 46 32 17 20 47 -23 60 -21 6 -40 17
-43 24 -3 8 -16 11 -34 8 -18 -3 -30 0 -30 7 0 6 7 11 15 11 10 0 15 10 14 33
0 29 -1 30 -11 11 -5 -12 -21 -28 -35 -35 -18 -10 -23 -18 -18 -36 4 -19 1
-23 -16 -23 -16 0 -19 3 -11 13 7 8 7 18 2 27 -14 22 -13 25 24 38 19 7 37 19
40 27 3 8 12 15 21 15 8 0 15 9 15 20 0 17 5 19 25 14 20 -5 25 -3 23 12 -5
60 -5 60 96 59 82 0 93 -2 83 -15 -19 -24 -28 -28 -80 -35 -34 -5 -56 -15 -70
-31 -11 -13 -26 -24 -33 -24 -16 0 -24 -24 -13 -41 5 -8 9 -24 9 -36 0 -29 13
-36 44 -22 37 17 32 32 -6 24 l-33 -7 23 24 c12 13 22 34 22 45 0 28 17 39 72
47 35 5 54 15 72 37 14 16 28 29 33 29 5 0 25 11 45 25 20 14 47 25 58 25 12
0 35 9 51 21 16 11 33 17 39 14 19 -12 10 -45 -15 -57 -27 -12 -27 -25 1 -80
13 -24 12 -27 -14 -44 -15 -10 -34 -17 -42 -16 -22 4 -100 -25 -122 -45 -9 -8
-29 -15 -43 -15 -15 0 -25 -6 -25 -15 0 -15 31 -14 42 2 5 6 8 5 8 -2 0 -20
17 -15 23 6 5 19 81 51 123 51 12 0 27 6 34 14 6 8 17 13 25 10 22 -9 25 12 9
60 -16 46 -16 48 5 62 25 18 27 51 5 75 -9 10 -13 23 -9 28 9 15 35 14 36 -1
3 -51 29 -95 65 -108 14 -6 24 -17 24 -30 0 -11 5 -20 10 -20 24 0 8 41 -25
62 -25 16 -39 35 -47 63 -6 22 -17 47 -25 56 -7 8 -13 19 -13 22 0 13 51 7 83
-10z m593 -72 c-6 -55 -4 -61 54 -181 34 -68 70 -130 81 -138 10 -7 19 -22 19
-33 0 -19 -3 -18 -37 8 -24 19 -47 51 -69 98 -52 115 -83 210 -73 226 5 8 9
31 9 52 0 26 4 36 11 31 7 -4 9 -26 5 -63z m373 34 c26 -19 53 -35 60 -35 6 0
11 -5 11 -11 0 -7 -7 -8 -17 -4 -10 4 -25 8 -34 9 -19 1 -99 76 -81 76 6 0 34
-16 61 -35z m1083 -9 c2 -14 10 -21 26 -21 34 0 63 -50 50 -87 -12 -35 -4
-127 13 -142 9 -8 10 -1 4 29 -8 41 -8 113 1 126 8 14 48 0 67 -22 20 -25 20
-25 3 -104 -12 -50 -11 -64 0 -82 18 -29 18 -30 -7 -36 -27 -7 -105 48 -101
70 5 24 -80 202 -100 209 -30 9 -42 43 -23 64 23 25 63 23 67 -4z m-92 -6 c0
-5 -4 -10 -10 -10 -5 0 -10 5 -10 10 0 6 5 10 10 10 6 0 10 -4 10 -10z m-2444
-67 c-4 -4 -14 1 -22 11 -22 31 -17 43 8 19 12 -13 18 -26 14 -30z m2229 -1
c-2 -2 -13 2 -25 8 -18 9 -19 14 -9 26 11 13 14 12 25 -8 7 -13 11 -24 9 -26z
m985 7 c0 -5 -12 -9 -27 -9 -27 1 -27 1 -9 15 19 14 36 12 36 -6z m131 -97
c-13 -4 -41 16 -41 29 0 5 12 2 26 -8 15 -9 21 -19 15 -21z m-1733 -88 c33
-52 29 -64 -19 -64 -22 0 -38 4 -35 8 3 5 19 7 36 4 37 -5 37 1 5 44 -26 34
-30 44 -17 44 4 -1 17 -17 30 -36z m1196 -12 c6 -10 -47 -62 -63 -62 -22 0
-10 40 17 54 32 18 39 19 46 8z m-2120 -58 c10 -9 16 -33 16 -62 l0 -46 -40
39 c-53 52 -52 64 7 84 1 1 9 -6 17 -15z m1915 -8 c30 -16 59 -46 44 -46 -5 0
-15 6 -21 12 -10 10 -18 6 -37 -17 -30 -37 -30 -36 0 -69 14 -15 25 -36 25
-47 0 -10 8 -27 18 -37 9 -10 30 -37 45 -60 22 -34 32 -42 47 -37 11 4 20 2
20 -4 0 -8 13 -9 64 -2 4 0 5 12 2 25 -5 21 -3 24 17 20 20 -4 20 -4 2 5 -11
4 -23 7 -27 5 -4 -3 -21 16 -39 41 -37 52 -61 63 -93 41 -23 -15 -24 -15 -28
36 -7 70 12 90 70 75 32 -9 41 -16 46 -38 6 -32 61 -73 121 -92 l40 -12 -70
-5 c-84 -6 -64 -20 29 -20 108 0 125 -42 41 -100 -24 -17 -48 -38 -53 -46 -7
-13 -13 -14 -31 -4 -40 21 -50 7 -45 -62 2 -35 7 -76 10 -92 5 -21 3 -27 -7
-24 -24 8 -78 100 -90 154 -7 29 -21 68 -33 88 -12 19 -34 56 -50 83 -16 26
-40 58 -53 71 -21 20 -23 31 -21 97 3 81 8 86 57 61z m-1986 -35 c17 -25 25
-46 21 -56 -6 -14 -3 -16 13 -11 18 6 21 1 27 -44 5 -35 12 -53 24 -56 46 -15
46 -16 14 -28 -40 -14 -33 -28 9 -16 16 5 31 5 34 1 7 -13 -70 -58 -111 -65
-22 -3 -65 -18 -96 -33 -32 -15 -61 -23 -65 -19 -4 4 0 21 10 38 10 18 14 35
9 40 -5 5 -18 -13 -32 -44 -12 -29 -24 -47 -27 -41 -2 7 3 23 11 35 22 31 22
124 -1 136 -15 9 -14 13 8 42 13 18 36 45 52 60 15 15 27 33 27 38 0 23 20 62
32 62 7 0 25 -18 41 -39z m2147 9 c0 -6 -7 -13 -15 -16 -21 -8 -67 4 -60 16 8
13 75 13 75 0z m-2766 -76 c7 -19 2 -18 -19 6 -16 17 -16 20 -3 15 9 -4 19
-13 22 -21z m1602 9 c12 -17 13 -17 19 0 12 30 67 22 93 -13 25 -33 27 -47 10
-53 -8 -2 0 -14 20 -31 32 -28 32 -29 26 -95 -4 -36 -9 -71 -13 -77 -3 -7 -40
-35 -81 -62 -41 -28 -109 -83 -150 -123 -57 -55 -81 -71 -100 -69 -32 3 -38 9
-20 20 9 6 17 5 22 -2 7 -12 41 19 137 126 39 43 51 64 47 79 -3 12 0 27 6 34
17 21 0 60 -36 83 -26 15 -35 28 -34 48 0 15 -5 40 -11 55 -8 21 -8 34 0 50
27 51 43 59 65 30z m-1386 0 c0 -17 -36 -43 -58 -43 l-25 0 23 25 c21 23 60
35 60 18z m1297 -66 c-2 -7 2 -18 10 -25 7 -7 13 -23 13 -34 0 -12 -3 -18 -7
-15 -12 13 -41 85 -36 91 9 9 24 -5 20 -17z m1048 -94 c16 -32 43 -78 61 -103
41 -59 66 -109 61 -123 -2 -7 -14 8 -27 33 -12 25 -35 63 -50 85 -27 39 -90
159 -90 170 0 17 19 -10 45 -62z m405 41 c0 -2 -9 -4 -21 -4 -11 0 -18 4 -14
10 5 8 35 3 35 -6z m61 -27 c-7 -7 -15 -6 -26 3 -24 20 -18 31 10 18 17 -8 22
-15 16 -21z m-2208 -80 c92 -77 157 -107 157 -73 0 24 17 27 54 9 39 -18 45
-39 25 -90 -14 -37 -25 -43 -86 -43 -33 0 -57 -6 -67 -16 -15 -14 -16 -12 -16
19 0 25 -6 37 -23 46 -28 15 -138 22 -153 10 -17 -14 -54 36 -54 71 0 20 -6
30 -22 35 -20 6 -19 8 15 16 21 5 54 20 75 34 20 14 38 25 40 25 2 0 27 -19
55 -43z m2367 8 c0 -14 -4 -25 -10 -25 -5 0 -10 11 -10 25 0 14 5 25 10 25 6
0 10 -11 10 -25z m-1780 -4 c0 -6 -4 -13 -10 -16 -5 -3 -10 1 -10 9 0 9 5 16
10 16 6 0 10 -4 10 -9z m27 -6 c0 -8 -4 -15 -9 -15 -4 0 -8 7 -8 15 0 8 4 15
8 15 5 0 9 -7 9 -15z m27 0 c-4 -8 -10 -12 -15 -9 -11 6 -2 24 11 24 5 0 7 -7
4 -15z m36 0 c0 -8 -4 -15 -10 -15 -5 0 -10 7 -10 15 0 8 5 15 10 15 6 0 10
-7 10 -15z m50 2 c0 -7 -9 -13 -20 -14 -11 -1 -20 4 -20 10 0 7 9 13 20 14 11
1 20 -4 20 -10z m40 0 c0 -8 -7 -14 -15 -14 -25 0 -17 17 13 26 1 1 2 -5 2
-12z m1630 -18 c0 -5 -4 -9 -10 -9 -5 0 -10 7 -10 16 0 8 5 12 10 9 6 -3 10
-10 10 -16z m-2602 -27 c35 -35 33 -58 -7 -101 -21 -23 -41 -38 -45 -33 -4 4
-25 7 -46 8 -31 0 -37 -2 -29 -13 7 -7 21 -10 33 -7 39 9 52 -19 32 -69 -9
-23 -16 -54 -16 -68 0 -22 -4 -25 -23 -22 -36 7 -77 -13 -77 -39 0 -16 -3 -19
-11 -11 -11 11 -9 48 6 118 3 17 6 47 5 68 -1 27 3 37 15 37 8 0 15 5 15 11 0
6 -9 8 -20 4 -30 -10 -24 8 10 28 24 15 29 23 24 43 -5 20 -2 24 15 24 11 0
35 9 53 20 40 24 43 25 66 2z m352 -12 c0 -5 -7 -10 -15 -10 -8 0 -15 5 -15
10 0 6 7 10 15 10 8 0 15 -4 15 -10z m1860 -14 c0 -3 -4 -8 -10 -11 -5 -3 -10
-1 -10 4 0 6 5 11 10 11 6 0 10 -2 10 -4z m522 -39 c-12 -13 -22 -32 -22 -42
0 -17 -1 -17 -20 0 -27 24 -26 29 13 48 45 22 54 21 29 -6z m-2674 -43 c2 -12
-8 -35 -22 -52 -15 -16 -26 -35 -26 -40 0 -6 -8 -18 -17 -28 -13 -13 -14 -19
-5 -22 21 -7 12 -82 -10 -82 -16 0 -37 32 -38 58 0 13 7 36 16 53 8 16 12 39
9 49 -4 12 -2 20 5 20 6 0 14 8 17 17 20 51 65 68 71 27z m491 0 c11 -14 25
-41 31 -60 6 -19 18 -34 26 -34 9 0 12 5 9 10 -10 17 4 11 27 -10 11 -10 41
-28 65 -40 42 -19 43 -22 38 -54 -5 -24 -1 -42 13 -66 l20 -33 -44 -31 c-24
-17 -78 -55 -120 -83 l-75 -53 -26 30 c-17 21 -23 37 -19 53 3 13 1 48 -5 78
-6 30 -12 79 -13 109 -3 51 0 58 36 99 21 24 36 47 33 50 -3 3 -23 -15 -44
-39 -22 -25 -42 -42 -45 -39 -11 11 -10 82 2 112 15 37 62 38 91 1z m-312 -7
c12 -7 26 -73 29 -132 0 -22 5 -50 9 -62 6 -19 0 -25 -52 -50 -32 -16 -63 -39
-69 -51 -17 -34 -22 -37 -41 -19 -18 15 -78 13 -68 -3 3 -5 14 -6 25 -3 12 3
29 -2 39 -12 15 -13 24 -14 39 -6 17 9 20 6 26 -27 7 -45 38 -82 70 -82 13 0
31 -12 45 -31 27 -37 20 -63 -34 -121 -30 -32 -39 -37 -65 -32 -34 7 -39 30
-12 50 15 12 14 13 -11 14 -24 0 -31 7 -44 40 -13 33 -21 40 -43 40 -14 0 -31
5 -38 12 -17 17 -27 1 -12 -18 9 -9 23 -14 38 -11 19 4 27 -1 38 -27 8 -17 18
-38 23 -46 5 -8 14 -27 20 -42 7 -20 18 -28 35 -28 14 0 38 -14 60 -36 29 -29
36 -44 36 -75 l0 -39 -185 0 c-204 0 -204 0 -160 60 14 19 25 39 25 46 0 6 6
17 14 23 17 14 29 64 27 116 -1 22 3 55 8 72 9 31 7 35 -35 69 -49 40 -51 52
-28 125 11 34 22 49 34 49 21 0 32 30 34 91 1 34 8 54 29 78 15 18 27 39 27
46 0 8 7 18 17 23 18 10 133 9 150 -1z m-442 -7 c-3 -5 -13 -10 -21 -10 -8 0
-12 5 -9 10 3 6 13 10 21 10 8 0 12 -4 9 -10z m1309 -32 c8 -31 7 -38 -2 -38
-12 0 -32 46 -25 54 12 11 21 6 27 -16z m-430 -14 c8 -20 8 -24 -1 -24 -17 0
-35 19 -29 29 10 16 23 14 30 -5z m-236 -41 c7 -27 15 -68 17 -93 2 -25 8 -72
14 -105 11 -65 9 -69 -31 -79 -25 -6 -28 -3 -38 33 -9 33 -40 77 -40 56 0 -19
-33 24 -55 72 -25 54 -30 123 -10 142 12 11 45 18 95 20 34 1 36 -1 48 -46z
m332 -33 c0 -5 -4 -10 -9 -10 -6 0 -13 5 -16 10 -3 6 1 10 9 10 9 0 16 -4 16
-10z m54 -112 l-1 -82 -49 -29 c-54 -32 -118 -81 -178 -136 -23 -22 -34 -28
-28 -16 14 27 126 133 184 175 26 18 50 40 53 49 3 9 -1 40 -9 69 -13 50 -12
52 8 52 20 0 21 -5 20 -82z m-879 0 c-4 -18 -15 -47 -25 -64 -23 -41 -8 -91
38 -119 l33 -20 -4 -90 c-3 -94 -4 -95 -87 -230 -20 -34 -4 -47 64 -53 45 -4
55 -8 60 -26 9 -34 7 -214 -3 -220 -21 -14 -41 7 -41 43 0 20 -4 43 -10 51
-15 24 -20 6 -8 -28 10 -26 10 -37 0 -52 -17 -28 -16 -28 26 -32 l37 -3 6 -67
c5 -65 26 -108 52 -108 6 0 1 11 -11 23 -17 18 -24 41 -29 90 l-6 67 55 0 c49
0 78 -12 78 -32 0 -4 -13 -8 -30 -8 -16 0 -30 -4 -30 -10 0 -5 18 -10 41 -10
35 0 48 7 97 54 31 29 67 59 80 65 12 6 22 15 22 19 0 4 -25 23 -55 41 -79 48
-76 67 18 110 39 18 90 35 112 38 l40 4 -24 -21 c-13 -11 -31 -25 -40 -30 -13
-7 -14 -16 -4 -62 13 -65 -1 -101 -51 -125 -32 -15 -33 -17 -25 -52 12 -53 11
-61 -10 -61 -10 0 -26 -11 -35 -25 -9 -14 -22 -25 -28 -25 -6 0 -35 -24 -64
-54 -46 -47 -59 -54 -98 -57 l-44 -4 -7 44 c-4 24 -27 82 -52 130 -25 47 -47
103 -49 124 -2 21 -17 86 -34 145 l-31 106 22 58 c12 32 30 69 39 81 21 27 32
141 17 177 -6 14 -20 35 -31 48 -29 32 -45 86 -33 108 8 14 7 16 -8 10 -21 -8
-35 8 -35 40 0 31 20 44 68 44 l44 0 -7 -32z m364 -18 c7 -20 21 -34 40 -41
37 -13 48 -60 26 -112 -11 -28 -19 -34 -35 -30 -31 8 -24 -15 10 -29 16 -7 54
-37 85 -66 42 -41 55 -61 55 -82 0 -30 -24 -51 -48 -43 -9 4 -11 -2 -7 -20 6
-23 3 -27 -37 -38 -60 -17 -68 -18 -85 -12 -17 7 -8 62 14 78 12 9 12 17 -1
55 -14 41 -14 45 5 71 22 32 25 51 5 43 -7 -3 -26 9 -41 28 -19 22 -35 32 -50
30 -29 -4 -55 31 -55 75 0 23 -5 33 -16 33 -29 0 -8 24 52 56 32 18 62 33 66
34 3 0 11 -14 17 -30z m190 -169 c17 -21 31 -43 31 -47 0 -5 -14 -25 -30 -44
l-29 -35 -45 47 c-34 36 -43 52 -39 70 16 62 67 67 112 9z m-200 -227 c-15
-50 -21 -53 -43 -23 -16 24 -12 44 17 77 18 20 22 21 30 7 5 -10 4 -33 -4 -61z
m211 -24 c0 -12 -28 -25 -36 -17 -9 9 6 27 22 27 8 0 14 -5 14 -10z m-4 -56
c-3 -9 -6 -29 -6 -45 0 -16 -4 -29 -10 -29 -5 0 -10 12 -10 26 0 14 -5 34 -10
45 -9 17 -7 19 16 19 20 0 25 -4 20 -16z m-50 -19 c4 -14 5 -27 3 -29 -2 -2
-28 -7 -56 -11 -52 -7 -53 -6 -53 19 0 20 7 27 33 35 53 15 66 13 73 -14z
m-120 -20 c8 -31 4 -36 -23 -29 -13 4 -20 12 -18 22 2 10 4 20 4 25 2 18 31 4
37 -18z m-20 -54 c-3 -4 -26 -16 -51 -25 -41 -16 -45 -21 -45 -52 0 -19 4 -34
10 -34 5 0 -9 -19 -30 -42 -22 -24 -42 -51 -46 -60 -3 -10 -13 -18 -22 -18 -9
0 -33 -3 -52 -6 l-36 -6 1 126 0 126 138 0 c76 0 136 -4 133 -9z m-25 -148
c35 -21 36 -27 5 -41 -13 -6 -41 -31 -62 -56 -21 -25 -41 -46 -45 -46 -4 0
-12 14 -19 30 -14 33 -14 32 49 103 29 32 34 32 72 10z m-338 -485 c-14 -16
-19 -17 -31 -4 -12 12 -11 18 9 46 l24 31 7 -27 c5 -20 3 -33 -9 -46z"/>
<path d="M2335 3640 c-7 -12 2 -30 16 -30 5 0 9 5 9 11 0 5 -4 7 -10 4 -5 -3
-10 -2 -10 4 0 5 6 12 13 14 9 4 9 6 0 6 -6 1 -15 -3 -18 -9z"/>
<path d="M2436 3635 c4 -8 8 -15 10 -15 2 0 4 7 4 15 0 8 -4 15 -10 15 -5 0
-7 -7 -4 -15z"/>
<path d="M4390 3656 c0 -6 18 -12 40 -13 22 -1 40 3 40 8 0 5 -8 9 -17 10 -10
0 -28 2 -40 3 -13 2 -23 -2 -23 -8z"/>
<path d="M1453 3323 c10 -9 67 -10 67 0 0 4 -16 7 -37 7 -20 0 -33 -3 -30 -7z"/>
<path d="M2180 3010 c0 -5 5 -10 10 -10 6 0 10 5 10 10 0 6 -4 10 -10 10 -5 0
-10 -4 -10 -10z"/>
<path d="M2230 3004 c0 -8 5 -12 10 -9 6 3 10 10 10 16 0 5 -4 9 -10 9 -5 0
-10 -7 -10 -16z"/>
<path d="M2260 3011 c0 -6 4 -13 10 -16 6 -3 7 1 4 9 -7 18 -14 21 -14 7z"/>
<path d="M2290 3010 c0 -5 7 -10 15 -10 8 0 15 5 15 10 0 6 -7 10 -15 10 -8 0
-15 -4 -15 -10z"/>
<path d="M2330 3010 c0 -5 5 -10 10 -10 6 0 10 5 10 10 0 6 -4 10 -10 10 -5 0
-10 -4 -10 -10z"/>
<path d="M3955 3010 c-3 -5 1 -13 10 -16 22 -9 29 1 11 15 -10 8 -16 9 -21 1z"/>
<path d="M3997 3004 c3 -7 9 -14 14 -14 14 0 10 17 -5 23 -10 4 -13 1 -9 -9z"/>
<path d="M4048 3012 c-31 -6 -19 -19 17 -19 34 0 45 10 25 22 -5 3 -10 0 -10
-7 0 -8 -3 -9 -8 -3 -4 6 -15 9 -24 7z"/>
<path d="M4110 3005 c0 -7 11 -12 25 -12 28 0 25 12 -5 20 -12 3 -20 0 -20 -8z"/>
<path d="M1605 3029 c-4 -5 5 -9 19 -9 14 0 26 4 26 8 0 11 -39 12 -45 1z"/>
<path d="M1670 3030 c0 -5 5 -10 10 -10 6 0 10 5 10 10 0 6 -4 10 -10 10 -5 0
-10 -4 -10 -10z"/>
<path d="M1900 3155 c0 -8 2 -15 4 -15 2 0 6 7 10 15 3 8 1 15 -4 15 -6 0 -10
-7 -10 -15z"/>
<path d="M1985 3149 c9 -13 45 -17 45 -5 0 7 -11 12 -24 12 -14 0 -23 -3 -21
-7z"/>
<path d="M2040 3145 c0 -8 5 -15 10 -15 6 0 10 7 10 15 0 8 -4 15 -10 15 -5 0
-10 -7 -10 -15z"/>
<path d="M2070 3145 c0 -6 7 -12 15 -12 8 0 15 6 15 12 0 6 -7 12 -15 12 -8 0
-15 -6 -15 -12z"/>
<path d="M1940 3090 c0 -5 14 -8 30 -6 45 5 49 16 7 16 -20 0 -37 -4 -37 -10z"/>
<path d="M2910 3020 c0 -5 9 -10 20 -10 11 0 20 5 20 10 0 6 -9 10 -20 10 -11
0 -20 -4 -20 -10z"/>
<path d="M3062 3003 c2 -17 9 -28 18 -28 9 0 16 11 18 28 3 22 -1 27 -18 27
-17 0 -21 -5 -18 -27z"/>
<path d="M3150 3020 c0 -5 4 -10 9 -10 6 0 13 5 16 10 3 6 -1 10 -9 10 -9 0
-16 -4 -16 -10z"/>
<path d="M2365 2871 c-3 -5 -1 -12 5 -16 5 -3 10 1 10 9 0 18 -6 21 -15 7z"/>
<path d="M2420 2865 c0 -9 5 -15 11 -13 6 2 11 8 11 13 0 5 -5 11 -11 13 -6 2
-11 -4 -11 -13z"/>
<path d="M2390 2860 c0 -5 5 -10 11 -10 5 0 7 5 4 10 -3 6 -8 10 -11 10 -2 0
-4 -4 -4 -10z"/>
<path d="M2490 2712 c0 -4 9 -8 20 -9 11 -1 20 2 20 8 0 5 -9 9 -20 9 -11 0
-20 -4 -20 -8z"/>
<path d="M2570 2710 c0 -5 5 -10 10 -10 6 0 10 5 10 10 0 6 -4 10 -10 10 -5 0
-10 -4 -10 -10z"/>
<path d="M2600 2710 c0 -5 5 -10 10 -10 6 0 10 5 10 10 0 6 -4 10 -10 10 -5 0
-10 -4 -10 -10z"/>
<path d="M2630 2708 c0 -4 4 -8 9 -8 6 0 12 4 15 8 3 5 -1 9 -9 9 -8 0 -15 -4
-15 -9z"/>
<path d="M2678 2713 c7 -3 16 -2 19 1 4 3 -2 6 -13 5 -11 0 -14 -3 -6 -6z"/>
<path d="M2530 2670 c0 -5 6 -10 13 -11 6 0 22 -2 35 -5 12 -2 22 0 22 5 0 6
-9 8 -20 6 -11 -2 -22 0 -25 6 -8 12 -25 12 -25 -1z"/>
<path d="M2863 2623 c-22 -8 -14 -23 12 -23 14 0 25 6 25 13 0 14 -14 17 -37
10z"/>
<path d="M2910 2610 c0 -5 5 -10 10 -10 6 0 10 5 10 10 0 6 -4 10 -10 10 -5 0
-10 -4 -10 -10z"/>
<path d="M2960 2608 c0 -11 22 -10 40 2 11 8 9 9 -12 8 -16 -1 -28 -6 -28 -10z"/>
<path d="M2811 2543 c0 -13 2 -14 6 -4 4 11 7 11 14 0 4 -7 11 -10 16 -6 4 5
1 12 -7 17 -22 14 -30 12 -29 -7z"/>
<path d="M2860 2541 c0 -5 11 -8 25 -8 13 0 22 3 19 8 -3 5 -14 9 -25 9 -10 0
-19 -4 -19 -9z"/>
<path d="M2920 2540 c0 -5 5 -10 10 -10 6 0 10 5 10 10 0 6 -4 10 -10 10 -5 0
-10 -4 -10 -10z"/>
<path d="M2841 2474 c0 -11 3 -14 6 -6 3 7 2 16 -1 19 -3 4 -6 -2 -5 -13z"/>
<path d="M2890 2470 c0 -5 5 -10 11 -10 5 0 7 5 4 10 -3 6 -8 10 -11 10 -2 0
-4 -4 -4 -10z"/>
<path d="M2920 2468 c0 -5 16 -8 35 -6 19 1 35 6 35 10 0 5 -16 8 -35 6 -19
-1 -35 -6 -35 -10z"/>
<path d="M2886 2398 c7 -11 34 -10 34 1 0 6 -9 9 -19 8 -11 0 -17 -5 -15 -9z"/>
<path d="M2934 2403 c11 -12 56 -14 56 -3 0 5 -14 10 -32 10 -17 0 -28 -3 -24
-7z"/>
<path d="M2910 2339 c0 -5 17 -9 37 -9 20 0 33 3 29 7 -10 11 -66 12 -66 2z"/>
<path d="M3096 2241 c-3 -4 -17 -6 -31 -3 -15 2 -25 0 -25 -7 0 -16 46 -13 60
4 7 8 10 15 7 15 -3 0 -8 -4 -11 -9z"/>
<path d="M3130 2240 c-9 -6 -10 -10 -3 -10 6 0 15 5 18 10 8 12 4 12 -15 0z"/>
<path d="M2980 2230 c0 -5 5 -10 11 -10 5 0 7 5 4 10 -3 6 -8 10 -11 10 -2 0
-4 -4 -4 -10z"/>
<path d="M3010 2230 c0 -5 5 -10 10 -10 6 0 10 5 10 10 0 6 -4 10 -10 10 -5 0
-10 -4 -10 -10z"/>
<path d="M4170 2779 c0 -5 19 -9 42 -9 49 0 47 5 -4 13 -21 3 -38 2 -38 -4z"/>
<path d="M4410 2494 c0 -17 26 -19 33 -1 4 10 6 10 6 0 1 -7 8 -13 17 -13 30
0 8 24 -24 26 -22 2 -32 -2 -32 -12z"/>
<path d="M2124 2771 c1 -16 63 -24 72 -9 4 7 -7 9 -29 6 -20 -2 -38 1 -40 7
-2 5 -3 4 -3 -4z"/>
<path d="M2210 2760 c0 -5 7 -10 16 -10 8 0 12 5 9 10 -3 6 -10 10 -16 10 -5
0 -9 -4 -9 -10z"/>
<path d="M2250 2760 c0 -5 5 -10 10 -10 6 0 10 5 10 10 0 6 -4 10 -10 10 -5 0
-10 -4 -10 -10z"/>
<path d="M2280 2758 c0 -3 9 -6 20 -5 11 1 20 5 20 9 0 3 -9 6 -20 5 -11 -1
-20 -5 -20 -9z"/>
<path d="M2135 2699 c-10 -15 3 -25 16 -12 7 7 7 13 1 17 -6 3 -14 1 -17 -5z"/>
<path d="M2170 2690 c0 -5 5 -10 10 -10 6 0 10 5 10 10 0 6 -4 10 -10 10 -5 0
-10 -4 -10 -10z"/>
<path d="M2200 2689 c0 -4 20 -7 45 -7 24 1 42 5 39 9 -6 11 -84 9 -84 -2z"/>
<path d="M1710 2650 c0 -6 7 -10 15 -10 8 0 15 2 15 4 0 2 -7 6 -15 10 -8 3
-15 1 -15 -4z"/>
<path d="M1750 2642 c0 -12 3 -13 8 -5 5 8 13 9 22 3 22 -14 62 -12 58 2 -3 7
-23 13 -46 15 -34 1 -42 -2 -42 -15z"/>
<path d="M2050 2400 c0 -6 7 -10 15 -10 8 0 15 2 15 4 0 2 -7 6 -15 10 -8 3
-15 1 -15 -4z"/>
<path d="M2440 2339 c0 -18 2 -19 15 -9 15 12 12 30 -6 30 -5 0 -9 -10 -9 -21z"/>
<path d="M1686 2336 c6 -14 74 -21 74 -6 0 4 -10 6 -22 6 -13 -1 -31 1 -40 6
-13 6 -16 5 -12 -6z"/>
<path d="M2482 2333 c-10 -10 -10 -13 1 -13 8 0 20 6 26 13 8 10 7 14 -2 14
-7 0 -18 -6 -25 -14z"/>
<path d="M2527 2338 c-3 -10 3 -14 24 -14 17 0 29 5 29 13 0 7 -7 13 -15 13
-8 0 -15 -6 -15 -12 0 -10 -2 -10 -9 0 -7 11 -9 11 -14 0z"/>
<path d="M2596 2333 c-6 -14 -5 -15 5 -6 7 7 10 15 7 18 -3 3 -9 -2 -12 -12z"/>
<path d="M1770 2330 c0 -5 11 -10 25 -10 14 0 25 5 25 10 0 6 -11 10 -25 10
-14 0 -25 -4 -25 -10z"/>
<path d="M1696 2257 c5 -15 64 -17 64 -2 0 5 -16 11 -34 12 -24 1 -33 -2 -30
-10z"/>
<path d="M1735 2200 c-2 -3 5 -7 16 -7 10 -1 19 2 19 6 0 9 -29 10 -35 1z"/>
<path d="M1780 2199 c0 -5 5 -7 10 -4 6 3 10 8 10 11 0 2 -4 4 -10 4 -5 0 -10
-5 -10 -11z"/>
<path d="M1715 2140 c3 -5 8 -10 11 -10 2 0 4 5 4 10 0 6 -5 10 -11 10 -5 0
-7 -4 -4 -10z"/>
<path d="M1741 2134 c0 -11 3 -14 6 -6 3 7 2 16 -1 19 -3 4 -6 -2 -5 -13z"/>
<path d="M2699 2134 c0 -11 -3 -14 -6 -6 -4 10 -8 10 -19 1 -8 -6 -14 -7 -14
-2 0 5 -16 10 -35 11 -25 2 -35 -2 -35 -12 0 -15 31 -17 42 -1 5 7 8 6 8 0 0
-15 120 -15 120 -1 0 6 5 4 10 -4 8 -13 10 -13 10 1 0 19 -50 24 -50 5 0 -6
-7 -2 -15 8 -15 20 -15 20 -16 0z"/>
<path d="M2790 2125 c0 -8 4 -15 10 -15 5 0 7 7 4 15 -4 8 -8 15 -10 15 -2 0
-4 -7 -4 -15z"/>
<path d="M1960 1918 c0 -4 13 -7 30 -6 34 3 30 12 -5 14 -14 0 -25 -3 -25 -8z"/>
<path d="M2037 1917 c-3 -8 3 -14 15 -14 16 -2 17 1 8 13 -15 17 -17 17 -23 1z"/>
<path d="M4510 1948 c0 -4 7 -8 15 -8 8 0 15 4 15 8 0 5 -7 9 -15 9 -8 0 -15
-4 -15 -9z"/>
<path d="M3250 2045 c0 -8 5 -15 10 -15 6 0 10 7 10 15 0 8 -4 15 -10 15 -5 0
-10 -7 -10 -15z"/>
<path d="M3280 2040 c0 -5 6 -10 14 -10 8 0 18 5 21 10 3 6 -3 10 -14 10 -12
0 -21 -4 -21 -10z"/>
<path d="M3320 1953 c0 -5 13 -8 30 -9 16 -1 27 3 24 7 -6 11 -54 12 -54 2z"/>
<path d="M3315 1870 c6 -10 40 -8 51 3 4 4 -7 7 -25 7 -19 0 -30 -4 -26 -10z"/>
<path d="M2105 1590 c3 -5 10 -10 16 -10 5 0 9 5 9 10 0 6 -7 10 -16 10 -8 0
-12 -4 -9 -10z"/>
<path d="M2770 1561 c0 -16 13 -19 38 -10 18 7 28 6 34 -3 6 -10 8 -10 8 2 0
13 2 13 9 1 8 -12 12 -12 24 -2 12 9 16 9 20 -1 4 -9 6 -9 6 2 1 12 -13 16
-69 17 -38 1 -70 -2 -70 -6z"/>
<path d="M2840 1452 c0 -11 48 -13 54 -3 3 4 -8 8 -24 9 -17 0 -30 -3 -30 -6z"/>
<path d="M2370 1599 c0 -5 9 -9 20 -9 11 0 20 4 20 8 0 4 -9 8 -20 9 -11 1
-20 -2 -20 -8z"/>
<path d="M2426 1598 c7 -11 74 -10 74 2 0 5 -18 9 -40 8 -21 -1 -37 -5 -34
-10z"/>
<path d="M2315 1020 c-4 -6 3 -10 14 -10 25 0 27 6 6 13 -8 4 -17 2 -20 -3z"/>
<path d="M2370 1020 c-13 -8 -12 -10 3 -10 9 0 17 5 17 10 0 12 -1 12 -20 0z"/>
<path d="M2460 558 c0 -5 11 -8 25 -8 14 0 25 3 25 8 0 4 -11 7 -25 7 -14 0
-25 -3 -25 -7z"/>
<path d="M2381 511 c-8 -6 -9 -11 -3 -15 6 -3 14 -1 17 5 9 14 2 20 -14 10z"/>
<path d="M2410 508 c0 -12 18 -19 25 -9 3 6 12 8 20 4 8 -3 15 0 15 6 0 6 -13
10 -30 9 -16 -1 -30 -6 -30 -10z"/>
<path d="M2670 1121 c19 -16 37 -28 39 -25 8 8 -42 54 -58 54 -10 0 -3 -11 19
-29z"/>
<path d="M2442 898 c2 -6 10 -14 16 -16 7 -2 10 2 6 12 -7 18 -28 22 -22 4z"/>
<path d="M2330 766 c0 -10 10 -14 30 -14 33 1 29 11 -7 23 -17 4 -23 2 -23 -9z"/>
<path d="M2400 763 c0 -5 11 -9 25 -9 14 -1 22 2 19 7 -6 11 -44 12 -44 2z"/>
<path d="M3170 5106 c0 -7 7 -19 15 -26 9 -8 15 -9 15 -2 0 6 -5 14 -10 17 -6
4 -8 11 -5 16 4 5 1 9 -4 9 -6 0 -11 -6 -11 -14z"/>
<path d="M3460 5107 c22 -23 92 -57 115 -57 11 0 36 15 55 33 34 31 34 32 11
35 -13 2 -34 -2 -47 -8 -13 -8 -34 -10 -51 -6 -15 4 -44 10 -63 13 -31 4 -33
3 -20 -10z"/>
<path d="M3690 5104 c15 -17 61 -15 68 4 2 8 -9 12 -38 12 -37 0 -41 -2 -30
-16z"/>
<path d="M3953 5106 c-13 -6 -23 -16 -23 -23 0 -17 35 -34 55 -27 12 5 16 2
13 -12 -2 -16 3 -19 34 -19 28 0 42 -6 53 -22 21 -29 30 -29 74 4 20 16 42 26
50 25 8 -2 24 1 35 6 12 6 32 13 46 16 14 3 41 19 60 36 l35 29 -31 1 c-18 0
-45 -7 -60 -15 -38 -20 -68 -20 -60 0 4 12 -3 15 -30 15 -28 0 -35 -3 -30 -15
3 -10 -1 -15 -12 -15 -10 0 -28 -9 -40 -20 -27 -26 -56 -17 -41 12 8 16 8 23
-2 29 -19 12 -99 9 -126 -5z m217 -46 c-14 -10 -27 -16 -30 -13 -6 6 30 33 44
33 6 0 0 -9 -14 -20z"/>
<path d="M4487 5108 c28 -6 49 -6 60 1 14 8 4 10 -42 10 l-60 -1 42 -10z"/>
<path d="M4844 5101 c27 -30 120 -75 139 -68 10 4 22 18 27 32 7 18 17 25 35
25 14 0 28 1 32 3 6 2 12 -44 13 -95 0 -18 5 -28 15 -28 12 0 15 14 15 73 l0
74 -56 2 c-31 1 -62 -3 -70 -10 -10 -9 -25 -9 -58 0 -25 6 -59 11 -77 11 -31
0 -32 -1 -15 -19z m121 -22 c4 -6 5 -12 2 -15 -7 -7 -37 7 -37 17 0 13 27 11
35 -2z"/>
<path d="M2078 5023 c7 -3 16 -2 19 1 4 3 -2 6 -13 5 -11 0 -14 -3 -6 -6z"/>
<path d="M2158 5003 c7 -3 16 -2 19 1 4 3 -2 6 -13 5 -11 0 -14 -3 -6 -6z"/>
<path d="M3140 5000 c0 -5 5 -10 11 -10 5 0 7 5 4 10 -3 6 -8 10 -11 10 -2 0
-4 -4 -4 -10z"/>
<path d="M2350 4946 c0 -2 8 -10 18 -17 15 -13 16 -12 3 4 -13 16 -21 21 -21
13z"/>
<path d="M2551 4926 c-14 -15 -19 -26 -12 -31 6 -3 11 -15 11 -25 0 -14 -9
-20 -37 -23 l-38 -4 40 1 c39 1 40 2 45 41 3 22 9 46 13 53 13 19 2 14 -22
-12z"/>
<path d="M3110 4939 c0 -5 5 -7 10 -4 6 3 10 8 10 11 0 2 -4 4 -10 4 -5 0 -10
-5 -10 -11z"/>
<path d="M5084 4929 c-3 -6 -1 -16 5 -22 9 -9 14 -8 21 3 9 15 4 30 -10 30 -5
0 -12 -5 -16 -11z"/>
<path d="M898 4899 c-21 -11 -38 -22 -38 -24 0 -5 79 32 89 41 12 11 -18 1
-51 -17z"/>
<path d="M2400 4906 c0 -2 8 -10 18 -17 15 -13 16 -12 3 4 -13 16 -21 21 -21
13z"/>
<path d="M1391 4834 c-33 -51 -38 -73 -19 -92 20 -20 32 -13 13 8 -17 18 -16
21 14 71 41 65 34 76 -8 13z"/>
<path d="M2420 4828 c-16 -22 -30 -44 -30 -48 0 -4 9 -27 20 -51 11 -24 20
-36 20 -26 0 10 -4 26 -9 35 -11 21 -2 84 10 76 5 -3 9 -2 8 3 -4 16 13 43 24
36 6 -3 7 -1 3 5 -11 17 -13 16 -46 -30z"/>
<path d="M46 4794 c-9 -8 -16 -21 -16 -27 -1 -7 -7 -1 -15 13 l-14 25 -1 -37
c0 -20 8 -50 17 -66 17 -29 17 -31 0 -50 -23 -25 -23 -88 1 -100 9 -5 36 -10
59 -11 32 -1 43 3 43 14 0 9 -9 15 -23 15 -26 0 -77 21 -77 32 0 4 10 18 23
32 l23 25 11 -30 c7 -17 19 -29 29 -29 10 0 26 -8 37 -17 15 -14 37 -18 106
-18 77 0 87 -2 83 -17 -2 -10 5 -21 18 -28 l22 -12 -21 -19 c-12 -11 -19 -24
-16 -29 3 -5 1 -11 -5 -15 -5 -3 -10 -15 -10 -26 0 -33 -34 -21 -86 31 -27 27
-55 50 -61 50 -18 0 -16 -10 4 -32 17 -19 27 -108 13 -108 -18 0 -31 31 -28
66 2 30 -1 39 -15 42 -12 3 -19 -5 -23 -27 -8 -40 -24 -30 -24 15 0 28 4 34
21 34 12 0 19 5 17 13 -3 6 -20 12 -39 12 -32 0 -34 -2 -33 -32 l2 -33 -25 20
c-37 29 -45 25 -40 -17 2 -22 9 -37 15 -35 17 3 15 -23 -3 -38 -8 -7 -15 -29
-15 -48 0 -30 2 -33 13 -20 6 9 28 19 48 22 30 5 43 1 79 -25 37 -27 41 -33
27 -41 -24 -13 -21 -23 9 -36 14 -7 23 -16 20 -21 -4 -5 -25 0 -48 11 -23 11
-66 28 -95 38 -51 17 -53 17 -53 -1 0 -13 13 -24 40 -35 22 -9 37 -20 34 -26
-3 -5 -12 -4 -20 3 -22 18 -39 -7 -35 -48 1 -17 62 -5 79 15 11 14 17 14 45 3
56 -23 72 -23 90 -3 14 16 15 24 6 51 -6 18 -9 35 -5 38 3 4 6 1 6 -5 0 -7 7
-12 15 -12 22 0 19 46 -6 97 -12 24 -19 46 -16 49 3 3 24 -6 46 -21 43 -26 61
-26 61 2 0 14 3 14 20 -2 16 -15 26 -17 47 -9 23 8 27 16 30 51 2 35 -2 45
-23 62 -25 19 -25 20 -5 31 40 21 23 49 -32 55 -33 4 -34 6 -7 14 34 9 38 44
8 65 -12 9 -18 16 -13 16 6 0 -12 11 -39 25 -27 13 -54 21 -61 19 -7 -3 -27 4
-45 15 -18 10 -39 17 -46 14 -10 -3 -12 0 -9 10 7 18 -20 47 -44 47 -10 0 -24
7 -31 15 -16 19 -25 19 -44 -1z m34 -55 c0 -5 -4 -9 -10 -9 -5 0 -10 7 -10 16
0 8 5 12 10 9 6 -3 10 -10 10 -16z m60 -30 c0 -5 -9 -9 -19 -9 -11 0 -27 -7
-35 -16 -15 -14 -16 -13 -16 10 0 18 6 26 23 28 27 5 47 -1 47 -13z m60 -39
c0 -5 -7 -10 -15 -10 -8 0 -29 -9 -47 -20 -36 -22 -53 -26 -43 -10 8 13 76 49
93 50 6 0 12 -4 12 -10z m75 -20 c4 -6 -7 -10 -24 -10 -17 0 -31 5 -31 10 0 6
11 10 24 10 14 0 28 -4 31 -10z m15 -29 c0 -20 -31 -32 -77 -29 -62 4 -63 23
0 24 26 0 50 4 54 7 9 10 23 9 23 -2z m106 -202 c8 -14 -10 -11 -32 6 -18 13
-18 14 4 8 12 -3 25 -9 28 -14z m-206 -111 c0 -4 -24 10 -52 32 -29 22 -56 40
-60 40 -5 0 -8 5 -8 10 0 6 27 -8 60 -32 33 -23 60 -45 60 -50z m46 -35 c-7
-7 -26 7 -26 19 0 6 6 6 15 -2 9 -7 13 -15 11 -17z"/>
<path d="M640 4770 c-8 -5 -10 -10 -5 -10 6 0 17 5 25 10 8 5 11 10 5 10 -5 0
-17 -5 -25 -10z"/>
<path d="M5042 4758 c-7 -7 -12 -18 -12 -25 0 -7 -13 -19 -30 -28 -39 -20 -39
-67 0 -76 30 -7 95 22 108 49 16 35 15 42 -8 42 -13 0 -20 -7 -20 -20 0 -10
-9 -24 -19 -30 -25 -13 -61 -13 -61 0 0 6 9 10 20 10 12 0 26 12 35 30 11 21
23 30 40 30 16 0 25 6 25 15 0 19 -60 21 -78 3z"/>
<path d="M550 4730 c-8 -5 -10 -10 -5 -10 6 0 17 5 25 10 8 5 11 10 5 10 -5 0
-17 -5 -25 -10z"/>
<path d="M4904 4715 c-8 -21 3 -45 20 -45 18 0 40 36 31 50 -9 15 -45 12 -51
-5z"/>
<path d="M4260 4655 c-7 -8 -19 -15 -26 -15 -10 0 -13 -7 -8 -25 6 -22 3 -25
-36 -31 -43 -7 -61 -27 -41 -47 25 -25 12 -39 -31 -34 -68 8 -136 37 -163 69
-21 25 -31 29 -54 25 -17 -4 -36 0 -47 8 -27 20 -52 18 -66 -5 -7 -11 -17 -20
-21 -20 -5 0 -23 -16 -41 -35 -28 -29 -38 -34 -62 -29 -37 7 -81 -34 -69 -63
8 -17 8 -17 12 2 6 28 32 45 68 45 25 0 44 12 87 54 l55 54 31 -20 c23 -14 36
-17 49 -10 14 8 24 3 51 -24 18 -18 45 -36 60 -40 15 -3 38 -11 52 -18 14 -7
42 -16 63 -19 33 -5 39 -3 46 16 5 13 4 30 -1 40 -12 23 -11 25 38 35 27 5 40
14 42 27 2 11 16 32 30 48 19 20 22 27 10 27 -9 0 -21 -7 -28 -15z"/>
<path d="M4382 4643 c4 -21 33 -25 33 -3 0 8 -8 16 -18 18 -14 3 -18 -1 -15
-15z"/>
<path d="M4770 4642 c0 -16 48 -54 59 -47 15 9 14 21 -5 39 -16 17 -54 22 -54
8z"/>
<path d="M5106 4602 c-4 -8 -16 -12 -26 -9 -24 6 -60 -19 -60 -42 0 -12 -11
-21 -32 -27 -27 -8 -33 -15 -34 -39 0 -17 4 -33 10 -37 6 -4 6 -16 -2 -34 -18
-37 -7 -42 38 -16 21 12 46 22 54 22 21 0 20 8 -4 48 -27 43 -25 52 8 52 42 1
64 23 60 62 -2 23 -6 29 -12 20z"/>
<path d="M4907 4564 c-14 -14 -7 -35 11 -32 9 2 17 10 17 17 0 16 -18 25 -28
15z"/>
<path d="M827 4519 c-7 -53 -2 -64 34 -79 23 -10 32 -10 44 0 22 18 19 51 -5
57 -11 3 -17 9 -14 14 11 19 -7 49 -30 49 -20 0 -24 -6 -29 -41z"/>
<path d="M3416 4472 c-47 -68 -31 -103 47 -100 38 2 51 -2 75 -25 15 -15 32
-27 37 -27 18 0 95 73 95 90 0 33 -35 43 -72 20 l-32 -19 -13 29 c-7 19 -19
30 -32 30 -11 0 -22 9 -26 20 -11 34 -49 25 -79 -18z m62 -18 c6 -11 17 -15
31 -11 22 5 41 -16 41 -47 0 -21 -24 -20 -82 1 -52 18 -57 27 -31 55 20 22 29
23 41 2z"/>
<path d="M5097 4493 c-14 -13 -7 -81 8 -87 12 -4 15 4 15 44 0 47 -7 60 -23
43z"/>
<path d="M4457 4483 c-12 -11 -8 -23 8 -23 8 0 15 7 15 15 0 16 -12 20 -23 8z"/>
<path d="M260 4450 c30 -28 33 -29 46 -13 16 21 17 30 5 37 -5 4 -11 1 -13 -5
-3 -9 -9 -9 -25 0 -39 21 -46 11 -13 -19z"/>
<path d="M4540 4393 c-39 -14 -47 -63 -9 -63 19 0 39 27 39 54 0 17 -5 18 -30
9z"/>
<path d="M1630 4326 c0 -15 24 -28 34 -19 13 14 5 33 -14 33 -11 0 -20 -6 -20
-14z"/>
<path d="M2607 4316 c-8 -9 -19 -30 -22 -48 -6 -24 -3 -35 11 -45 10 -7 23
-12 28 -10 10 3 25 52 29 92 2 25 -25 31 -46 11z"/>
<path d="M3004 4305 c-4 -8 -3 -27 0 -41 9 -33 49 -30 54 4 6 41 -41 72 -54
37z"/>
<path d="M1127 4245 c-8 -7 -20 -28 -27 -45 -12 -29 -11 -34 3 -45 11 -8 13
-15 6 -22 -25 -25 25 -62 55 -39 11 8 14 23 10 56 -2 25 -5 57 -6 72 -1 31
-22 43 -41 23z"/>
<path d="M2357 4254 c-14 -14 -7 -35 11 -32 9 2 17 10 17 17 0 16 -18 25 -28
15z"/>
<path d="M2190 4235 c0 -9 5 -15 11 -13 6 2 11 8 11 13 0 5 -5 11 -11 13 -6 2
-11 -4 -11 -13z"/>
<path d="M5079 4217 c-9 -12 -19 -34 -23 -49 -6 -27 -5 -28 29 -28 37 0 46 15
23 38 -10 10 -10 15 1 21 14 9 9 41 -6 41 -4 0 -15 -11 -24 -23z"/>
<path d="M4935 4150 c-3 -5 -9 -32 -12 -60 l-6 -50 37 0 c20 0 36 5 36 10 0 6
-4 10 -10 10 -5 0 -10 23 -10 50 0 37 -4 50 -14 50 -8 0 -18 -4 -21 -10z"/>
<path d="M113 4130 c-34 -31 -29 -69 7 -50 20 11 34 2 21 -14 -4 -6 -11 -26
-14 -44 -9 -46 12 -82 72 -126 28 -19 61 -53 74 -73 13 -21 36 -44 50 -52 14
-8 28 -20 31 -27 3 -8 -18 -1 -48 16 -33 19 -67 30 -91 30 l-38 0 7 -57 c5
-45 13 -64 41 -95 38 -41 44 -63 20 -72 -17 -6 -21 -36 -5 -36 6 0 10 5 10 10
0 6 6 10 14 10 43 0 44 65 1 102 -19 16 -25 32 -25 60 0 42 7 45 52 22 18 -9
45 -20 60 -25 25 -7 30 -4 43 22 14 27 14 30 -6 50 -11 11 -18 23 -15 26 6 6
19 1 109 -42 l38 -19 34 35 c19 19 37 46 40 61 6 24 0 34 -51 83 -33 30 -75
60 -94 66 -19 6 -49 25 -67 41 -25 24 -38 30 -62 26 -19 -3 -36 1 -42 9 -6 7
-21 13 -32 13 -16 0 -18 3 -9 12 20 20 14 35 -18 42 -16 3 -42 9 -57 12 -20 4
-34 -1 -50 -16z m97 -30 c13 -8 13 -10 -2 -10 -9 0 -20 5 -23 10 -8 13 5 13
25 0z m144 -95 c-10 -24 15 -45 53 -45 39 0 80 -19 108 -50 l20 -22 -37 7
c-26 5 -47 2 -69 -9 -18 -9 -38 -16 -45 -16 -8 0 -11 -6 -8 -15 4 -9 0 -15 -9
-15 -9 0 -22 -3 -31 -6 -10 -4 -16 -1 -16 7 0 7 3 9 7 6 3 -4 12 -2 18 3 17
14 -1 54 -29 66 -13 6 -23 24 -28 48 -9 44 -1 56 44 56 20 0 26 -4 22 -15z
m196 -155 c0 -5 -7 -10 -15 -10 -8 0 -15 5 -15 10 0 6 7 10 15 10 8 0 15 -4
15 -10z"/>
<path d="M0 4099 c0 -44 2 -46 24 -23 22 22 20 51 -4 57 -17 4 -20 0 -20 -34z"/>
<path d="M5015 4095 c-3 -8 -7 -21 -9 -29 -8 -25 7 -27 31 -4 13 12 23 16 23
10 0 -6 -4 -14 -10 -17 -5 -3 -10 -15 -10 -26 0 -22 25 -26 37 -6 4 8 16 16
26 20 29 11 21 44 -14 56 -44 15 -69 14 -74 -4z"/>
<path d="M0 4024 c0 -18 4 -20 42 -15 29 4 44 11 46 23 3 14 -4 17 -42 15 -39
-2 -46 -5 -46 -23z"/>
<path d="M516 4011 c-7 -10 18 -34 27 -25 7 8 -3 34 -13 34 -5 0 -11 -4 -14
-9z"/>
<path d="M759 4008 c-6 -21 -5 -38 2 -38 5 0 9 9 9 20 0 16 -7 28 -11 18z"/>
<path d="M811 3993 c-6 -10 -11 -12 -11 -5 0 16 -20 16 -20 -1 0 -7 11 -13 24
-13 17 0 22 5 19 16 -4 13 -3 13 9 0 18 -21 39 -24 31 -4 -3 8 -8 12 -11 10
-3 -3 -11 -1 -18 5 -9 7 -15 5 -23 -8z"/>
<path d="M33 3983 c-28 -14 -33 -22 -33 -50 0 -20 4 -32 10 -28 5 3 10 12 10
19 0 8 7 19 15 26 13 10 14 7 12 -25 -2 -45 18 -58 33 -21 11 31 43 25 38 -8
-3 -28 9 -46 31 -46 10 0 30 -9 44 -20 32 -25 57 -26 57 -1 0 13 -18 31 -54
52 -29 18 -61 45 -70 60 -19 32 -44 59 -54 58 -4 0 -22 -8 -39 -16z"/>
<path d="M690 3984 c0 -8 6 -11 15 -8 8 4 15 9 15 13 0 4 -7 8 -15 8 -8 0 -15
-6 -15 -13z"/>
<path d="M731 3984 c0 -11 3 -14 6 -6 3 7 2 16 -1 19 -3 4 -6 -2 -5 -13z"/>
<path d="M4993 3990 c-47 -19 -17 -91 43 -106 48 -12 61 50 19 91 -26 27 -29
28 -62 15z m47 -71 c0 -5 -4 -9 -10 -9 -5 0 -10 7 -10 16 0 8 5 12 10 9 6 -3
10 -10 10 -16z"/>
<path d="M4146 3935 c7 -18 16 -19 32 -3 7 7 12 8 12 2 0 -6 6 -11 13 -11 8 0
14 6 14 14 0 8 -13 13 -38 13 -30 0 -37 -3 -33 -15z"/>
<path d="M702 3865 c21 -22 39 -37 41 -34 2 2 -15 19 -37 38 l-41 35 37 -39z"/>
<path d="M2520 3888 c0 -22 26 -24 34 -3 3 8 1 15 -4 15 -6 0 -10 -6 -10 -12
0 -9 -4 -8 -10 2 -8 13 -10 12 -10 -2z"/>
<path d="M18 3834 c3 -19 1 -25 -7 -20 -7 5 -11 -6 -11 -34 0 -37 2 -40 20
-30 14 8 25 7 39 -2 27 -16 41 0 17 18 -19 14 -19 14 3 14 16 0 22 5 19 18 -2
9 -10 17 -18 17 -8 0 -17 9 -20 20 -3 11 -15 21 -27 23 -17 3 -20 -1 -15 -24z"/>
<path d="M126 3811 c-5 -7 -9 -23 -10 -36 -2 -12 -17 -37 -33 -55 -26 -28 -33
-31 -51 -21 -28 15 -32 14 -32 -9 0 -11 4 -20 9 -20 5 0 23 -11 39 -25 l30
-25 27 21 c20 16 25 27 21 45 -5 17 -1 24 14 29 15 5 20 15 20 39 0 38 -23 76
-34 57z m-26 -135 c0 -3 -4 -8 -10 -11 -5 -3 -10 -1 -10 4 0 6 5 11 10 11 6 0
10 -2 10 -4z"/>
<path d="M4882 3798 c4 -29 38 -38 38 -10 0 11 -7 23 -16 26 -24 9 -26 8 -22
-16z"/>
<path d="M888 3803 c7 -3 16 -2 19 1 4 3 -2 6 -13 5 -11 0 -14 -3 -6 -6z"/>
<path d="M1416 3803 c-11 -11 -6 -23 9 -23 8 0 15 4 15 9 0 13 -16 22 -24 14z"/>
<path d="M444 3695 c-8 -19 3 -35 25 -35 36 0 56 -57 24 -67 -7 -3 -9 3 -6 16
4 14 -5 26 -34 44 -45 30 -60 34 -91 23 -16 -5 -21 -13 -17 -25 3 -10 -3 -25
-14 -35 -15 -14 -17 -23 -11 -48 5 -16 14 -36 21 -44 9 -11 8 -18 -5 -32 -26
-30 -19 -34 24 -12 41 21 114 27 125 10 4 -6 -13 -10 -44 -10 -37 0 -75 -11
-143 -41 -78 -34 -96 -39 -116 -29 -29 13 -40 5 -26 -18 25 -39 57 -37 130 7
65 39 72 41 124 35 47 -5 59 -3 82 16 23 17 26 25 18 40 -8 14 -5 27 9 50 10
18 21 28 24 23 3 -5 2 -15 -4 -23 -5 -8 -9 -27 -9 -42 0 -27 -45 -82 -85 -104
-17 -10 -18 -14 -8 -37 17 -36 38 -34 103 9 30 20 74 43 98 51 50 17 55 46 9
51 -15 2 -27 10 -27 17 0 20 -21 30 -31 14 -6 -9 -9 0 -9 27 0 22 -7 49 -15
60 -8 10 -15 26 -15 34 0 19 -70 90 -88 90 -7 0 -15 -7 -18 -15z m-54 -55 c0
-5 -2 -10 -4 -10 -3 0 -8 5 -11 10 -3 6 -1 10 4 10 6 0 11 -4 11 -10z"/>
<path d="M0 3528 c0 -29 52 -60 85 -52 17 4 26 0 35 -15 11 -22 35 -28 45 -11
3 5 -2 21 -11 35 -13 19 -25 25 -54 25 -22 0 -48 8 -63 20 -32 25 -37 25 -37
-2z"/>
<path d="M0 3424 c0 -29 3 -34 24 -34 13 0 40 -11 60 -25 20 -14 39 -25 41
-25 10 0 75 -43 71 -47 -2 -2 -19 3 -37 12 -28 15 -34 15 -43 3 -7 -10 -28
-14 -61 -14 l-50 1 -3 -89 c-3 -100 0 -106 61 -106 25 0 37 -4 37 -14 0 -8 5
-18 11 -21 16 -11 49 25 49 54 1 20 11 33 43 52 70 44 87 51 87 38 0 -13 68
-3 88 13 8 7 17 7 28 -2 12 -11 18 -11 31 2 18 19 10 38 -17 38 -26 0 -56 56
-40 75 9 10 7 18 -8 33 -18 18 -18 21 -4 36 9 8 13 19 9 23 -8 7 -49 -13 -119
-58 -51 -34 -70 -33 -116 6 -16 13 -54 37 -85 53 l-57 30 0 -34z m345 -63 c6
-10 -41 -51 -59 -51 -21 0 -86 -61 -86 -80 0 -11 -16 -28 -40 -41 -22 -13 -43
-33 -46 -45 -5 -20 -8 -21 -47 -9 -49 14 -59 43 -32 94 15 29 19 31 73 31 52
0 64 5 137 55 86 58 91 60 100 46z m-35 -99 c0 -11 -12 -21 -35 -28 -31 -10
-35 -9 -35 6 0 16 32 38 58 39 6 1 12 -7 12 -17z"/>
<path d="M75 3241 c-3 -6 -3 -16 1 -22 3 -6 -3 -24 -15 -40 l-22 -29 24 0 c27
0 77 48 77 73 0 9 -6 17 -14 17 -8 0 -21 3 -29 6 -8 3 -18 1 -22 -5z"/>
<path d="M610 3392 c-83 -43 -120 -72 -120 -97 0 -38 17 -39 70 -5 31 20 58
30 70 27 23 -6 80 36 80 59 0 14 -30 34 -52 34 -7 -1 -29 -9 -48 -18z"/>
<path d="M1246 3395 c4 -8 8 -15 10 -15 2 0 4 7 4 15 0 8 -4 15 -10 15 -5 0
-7 -7 -4 -15z"/>
<path d="M640 3204 c0 -9 7 -14 17 -12 25 5 28 28 4 28 -12 0 -21 -6 -21 -16z"/>
<path d="M1100 3095 c0 -8 5 -15 10 -15 6 0 10 7 10 15 0 8 -4 15 -10 15 -5 0
-10 -7 -10 -15z"/>
<path d="M1133 3096 c5 -16 27 -19 27 -3 0 7 -7 14 -15 14 -9 0 -14 -5 -12
-11z"/>
<path d="M1176 3095 c-3 -8 -1 -15 4 -15 6 0 10 7 10 15 0 8 -2 15 -4 15 -2 0
-6 -7 -10 -15z"/>
<path d="M1200 3089 c0 -18 2 -19 15 -9 15 12 12 30 -6 30 -5 0 -9 -10 -9 -21z"/>
<path d="M60 3074 c-18 -5 -60 -67 -60 -88 0 -27 20 -28 32 -2 8 19 19 26 39
26 15 0 29 6 32 14 7 18 -1 26 -26 26 -16 0 -17 3 -7 15 7 8 11 14 9 14 -2 -1
-11 -3 -19 -5z"/>
<path d="M146 3051 c-9 -10 -16 -22 -15 -27 7 -39 -6 -62 -66 -119 l-65 -61 0
-137 c0 -125 2 -137 19 -147 11 -5 30 -10 44 -10 31 0 40 -10 25 -28 -10 -11
-8 -17 7 -28 25 -18 45 -18 45 1 0 8 9 15 19 15 36 0 32 19 -8 40 -48 24 -56
48 -47 126 4 38 16 67 37 97 24 33 29 49 25 73 -7 34 17 64 65 83 20 7 28 19
33 47 10 48 -9 69 -47 55 -22 -9 -26 -7 -29 11 -4 29 -21 33 -42 9z m94 -56
c0 -9 -51 -25 -61 -19 -17 10 1 24 32 24 16 0 29 -2 29 -5z m-180 -170 c-7 -8
-20 -15 -28 -15 -13 0 -12 3 4 15 25 19 40 19 24 0z"/>
<path d="M990 3026 c0 -23 38 -26 44 -3 4 15 2 17 -7 8 -14 -14 -30 -15 -22
-1 3 6 1 10 -4 10 -6 0 -11 -6 -11 -14z"/>
<path d="M1050 3020 c0 -19 3 -21 12 -12 9 9 9 15 0 24 -9 9 -12 7 -12 -12z"/>
<path d="M1080 3024 c0 -8 5 -12 10 -9 6 4 8 11 5 16 -9 14 -15 11 -15 -7z"/>
<path d="M1111 3024 c0 -11 3 -14 6 -6 3 7 2 16 -1 19 -3 4 -6 -2 -5 -13z"/>
<path d="M1131 3023 c0 -12 2 -14 6 -4 5 11 7 11 15 0 8 -12 9 -12 6 0 -6 22
-28 25 -27 4z"/>
<path d="M1170 3028 c0 -7 11 -15 26 -16 14 -1 23 2 19 8 -3 6 -1 10 4 10 6 0
11 -4 11 -10 0 -5 7 -10 15 -10 8 0 15 8 15 18 0 14 -2 15 -10 2 -6 -10 -10
-11 -10 -2 0 6 -9 12 -20 12 -11 0 -20 -5 -20 -11 0 -8 -5 -8 -15 1 -12 10
-15 10 -15 -2z"/>
<path d="M60 2990 l-25 -6 23 -8 c24 -8 37 -3 31 12 -2 4 -15 5 -29 2z"/>
<path d="M784 2964 c-18 -14 -18 -15 4 -4 12 6 22 13 22 15 0 8 -5 6 -26 -11z"/>
<path d="M3615 2889 c-4 -6 -13 -8 -21 -5 -8 3 -11 0 -7 -10 5 -13 8 -13 24 2
19 17 23 24 15 24 -3 0 -8 -5 -11 -11z"/>
<path d="M1139 2877 c-66 -51 -70 -57 -65 -75 4 -10 17 -24 31 -30 16 -7 26
-23 31 -46 8 -46 23 -56 54 -40 14 8 19 14 11 14 -8 0 -28 17 -46 37 -30 34
-31 40 -22 76 8 31 17 42 44 53 18 8 33 16 33 19 0 10 -56 4 -71 -8z"/>
<path d="M3757 2784 c-17 -18 -6 -35 21 -32 16 2 27 9 27 18 0 16 -36 26 -48
14z"/>
<path d="M3426 2741 c-3 -5 1 -11 9 -15 15 -6 29 7 18 18 -9 9 -21 8 -27 -3z"/>
<path d="M198 2723 c7 -3 16 -2 19 1 4 3 -2 6 -13 5 -11 0 -14 -3 -6 -6z"/>
<path d="M142 2593 c2 -10 10 -18 18 -18 22 0 18 29 -3 33 -14 3 -18 -1 -15
-15z"/>
<path d="M3332 2584 c-29 -20 -29 -46 -1 -42 27 4 48 33 33 48 -7 7 -17 5 -32
-6z"/>
<path d="M3511 2584 c0 -11 3 -14 6 -6 3 7 2 16 -1 19 -3 4 -6 -2 -5 -13z"/>
<path d="M3530 2574 c0 -8 5 -12 10 -9 6 4 8 11 5 16 -9 14 -15 11 -15 -7z"/>
<path d="M3563 2575 c0 -8 9 -15 19 -15 10 0 18 7 18 15 0 8 -8 15 -18 15 -10
0 -19 -7 -19 -15z"/>
<path d="M0 2458 c0 -25 55 -78 82 -78 24 0 23 -6 -7 -38 -24 -26 -31 -42 -19
-42 3 0 24 16 46 35 44 37 73 38 39 1 -17 -18 -20 -30 -14 -75 5 -42 3 -52 -8
-50 -8 2 -38 -10 -66 -27 l-53 -29 1 -175 c1 -146 3 -170 13 -148 11 26 13 27
34 12 25 -18 29 -42 7 -50 -8 -4 -15 -12 -15 -19 0 -17 33 -45 53 -45 9 0 19
-5 22 -11 10 -15 -27 -40 -52 -34 -17 4 -23 -2 -32 -27 -17 -48 -14 -54 29
-68 56 -19 51 -34 -10 -27 l-50 6 0 -44 c0 -29 4 -45 13 -45 19 0 77 39 77 52
0 22 18 -6 28 -42 8 -33 6 -38 -44 -94 -37 -41 -56 -71 -62 -100 -8 -42 0 -58
21 -37 24 24 25 9 1 -26 -30 -44 -36 -68 -32 -118 l3 -39 39 51 c37 48 40 50
80 46 35 -4 45 -1 68 24 15 15 45 65 67 109 45 90 54 159 25 188 -20 20 -23
20 -59 -4 -16 -11 -35 -20 -41 -20 -15 0 -35 48 -40 97 -3 33 0 43 14 48 9 3
30 25 47 50 16 25 42 49 56 54 20 7 28 18 33 45 5 25 15 40 31 48 28 13 75 99
75 137 0 18 11 35 35 54 19 15 35 36 35 47 0 11 9 20 23 23 21 4 21 4 1 6 -17
1 -20 6 -17 25 7 37 -59 106 -102 106 -41 0 -100 46 -137 106 -16 24 -28 47
-28 51 0 10 -79 43 -101 43 -9 0 -32 16 -52 35 -41 40 -57 44 -57 13z m210
-158 c11 -21 30 -48 42 -59 l21 -20 -24 -20 c-13 -11 -29 -20 -35 -21 -22 0
-63 56 -70 97 -6 42 -1 50 43 62 2 1 12 -17 23 -39z m102 -117 c11 -10 33 -16
56 -15 20 1 46 -5 56 -13 24 -18 15 -31 -11 -15 -27 17 -93 -11 -93 -39 0 -15
6 -21 23 -21 35 0 39 -10 17 -38 -22 -27 -25 -53 -9 -69 26 -26 -35 -119 -71
-108 -21 7 -38 -12 -46 -53 -5 -24 -2 -31 12 -34 16 -3 13 -7 -12 -21 -17 -9
-41 -30 -52 -48 -22 -36 -36 -26 -34 27 1 26 -3 33 -24 38 -28 7 -23 26 7 26
21 0 69 28 69 40 0 4 -16 18 -35 31 -19 13 -35 32 -35 42 0 19 16 23 22 5 3
-8 9 -8 19 -2 8 5 34 9 59 9 42 0 45 2 48 28 2 20 -5 36 -28 58 -32 32 -55 35
-127 13 -39 -11 -25 10 22 35 24 13 47 32 51 43 5 17 12 19 50 13 35 -5 44 -3
44 8 0 8 -11 18 -25 21 -31 8 -32 20 -3 40 28 20 27 20 50 -1z m138 -108 c0
-10 -62 -67 -67 -61 -3 3 9 19 27 36 31 29 40 35 40 25z"/>
<path d="M3430 2426 c0 -9 5 -16 10 -16 6 0 10 4 10 9 0 6 -4 13 -10 16 -5 3
-10 -1 -10 -9z"/>
<path d="M3540 2361 c0 -25 -8 -26 -30 -6 -16 14 -18 13 -24 -15 -7 -38 5 -61
65 -129 34 -37 48 -47 53 -36 3 8 -6 28 -20 45 -28 33 -26 67 3 56 9 -4 24 1
35 11 17 16 20 15 51 -15 25 -24 36 -29 50 -21 17 10 24 54 8 63 -4 3 -22 0
-39 -6 -30 -12 -34 -10 -69 24 -48 46 -83 58 -83 29z"/>
<path d="M3335 2300 c-11 -17 5 -50 24 -50 27 0 31 10 14 36 -16 26 -28 30
-38 14z"/>
<path d="M3969 2286 c-9 -18 -7 -30 5 -54 10 -19 17 -62 19 -110 2 -70 -1 -83
-24 -118 -38 -58 -42 -94 -17 -156 28 -68 45 -88 78 -88 14 0 30 -3 36 -7 13
-10 -28 25 -68 58 -27 22 -32 33 -35 82 -2 41 2 64 16 89 27 46 33 91 23 176
-9 79 -7 83 42 99 l30 9 -22 22 c-30 30 -69 29 -83 -2z"/>
<path d="M930 2283 c5 -2 10 -18 10 -34 0 -18 -4 -28 -10 -24 -5 3 -10 -1 -10
-10 0 -11 5 -15 15 -11 12 4 15 -3 16 -32 l2 -37 7 40 7 40 2 -42 c2 -61 21
-54 21 7 0 43 -3 50 -17 48 -12 -2 -19 6 -23 26 -3 16 -11 31 -18 32 -7 1 -8
0 -2 -3z"/>
<path d="M33 2263 c-23 -8 -14 -23 12 -21 14 1 25 5 25 9 0 10 -23 17 -37 12z"/>
<path d="M86 2261 c-4 -7 -5 -15 -2 -18 9 -9 19 4 14 18 -4 11 -6 11 -12 0z"/>
<path d="M3740 2231 c0 -11 5 -23 10 -26 6 -3 10 3 10 14 0 11 -4 23 -10 26
-5 3 -10 -3 -10 -14z"/>
<path d="M802 2183 c3 -46 4 -48 33 -48 29 0 30 2 33 48 2 28 -1 47 -7 47 -10
0 -16 -45 -11 -79 1 -13 -1 -13 -14 -2 -9 8 -16 29 -16 47 0 19 -5 34 -11 34
-6 0 -9 -19 -7 -47z"/>
<path d="M887 2223 c-14 -13 -6 -41 16 -57 15 -12 17 -16 5 -12 -12 3 -18 0
-18 -9 0 -20 39 -19 47 2 4 10 -2 23 -16 35 -14 10 -21 24 -17 33 5 15 -5 20
-17 8z"/>
<path d="M1010 2215 c0 -9 6 -12 15 -9 8 4 15 2 15 -4 0 -5 -7 -15 -15 -22
-17 -14 -20 -50 -5 -50 6 0 10 6 10 14 0 8 5 18 11 21 6 4 9 0 7 -10 -2 -10 2
-20 7 -22 14 -5 15 80 1 89 -19 13 -46 9 -46 -7z"/>
<path d="M3370 2194 c0 -8 5 -12 10 -9 6 3 10 10 10 16 0 5 -4 9 -10 9 -5 0
-10 -7 -10 -16z"/>
<path d="M3755 2173 c4 -10 9 -33 12 -52 5 -30 7 -32 14 -14 8 23 -9 83 -24
83 -5 0 -6 -8 -2 -17z"/>
<path d="M1420 2170 c0 -5 5 -10 11 -10 5 0 7 5 4 10 -3 6 -8 10 -11 10 -2 0
-4 -4 -4 -10z"/>
<path d="M4870 2137 c0 -10 15 -14 60 -14 33 0 60 4 60 8 0 9 -16 13 -35 9
-22 -4 -41 -3 -62 4 -17 5 -23 3 -23 -7z"/>
<path d="M3575 2130 c-4 -6 -2 -25 4 -43 5 -17 15 -66 22 -107 14 -90 46 -132
100 -127 26 2 34 8 40 29 4 15 21 48 39 74 23 34 30 54 25 72 -6 24 -35 61
-35 45 0 -5 5 -14 11 -20 6 -6 8 -24 4 -41 -5 -24 -15 -34 -47 -47 -24 -9 -44
-12 -47 -7 -3 5 -15 11 -25 13 -27 5 -59 63 -58 102 2 55 -16 85 -33 57z"/>
<path d="M1560 2076 c0 -2 8 -10 18 -17 15 -13 16 -12 3 4 -13 16 -21 21 -21
13z"/>
<path d="M558 2063 c6 -2 18 -2 25 0 6 3 1 5 -13 5 -14 0 -19 -2 -12 -5z"/>
<path d="M638 2053 c6 -2 18 -2 25 0 6 3 1 5 -13 5 -14 0 -19 -2 -12 -5z"/>
<path d="M1236 2041 c-9 -10 -16 -21 -16 -25 0 -5 -14 -25 -31 -47 l-30 -38
31 -77 c37 -93 54 -122 45 -79 -3 17 -7 37 -8 45 -1 8 -8 21 -14 28 -7 7 -13
29 -13 49 0 51 45 91 102 91 24 0 59 5 78 11 32 9 30 10 -21 5 -53 -5 -58 -3
-82 25 -24 28 -26 29 -41 12z"/>
<path d="M1475 2030 c-16 -16 -24 -30 -18 -30 10 0 34 24 47 48 12 20 2 14
-29 -18z"/>
<path d="M733 2043 c9 -2 23 -2 30 0 6 3 -1 5 -18 5 -16 0 -22 -2 -12 -5z"/>
<path d="M833 2033 c9 -2 23 -2 30 0 6 3 -1 5 -18 5 -16 0 -22 -2 -12 -5z"/>
<path d="M1594 2024 c3 -9 6 -30 7 -47 0 -29 1 -30 9 -9 9 22 -2 72 -16 72 -3
0 -3 -7 0 -16z"/>
<path d="M928 2023 c7 -3 16 -2 19 1 4 3 -2 6 -13 5 -11 0 -14 -3 -6 -6z"/>
<path d="M1613 1874 c11 -47 14 -48 85 -44 18 1 44 -6 58 -15 l25 -16 -21 40
c-23 46 -38 51 -65 21 -28 -31 -59 -22 -63 17 -2 17 -9 34 -16 36 -10 4 -11
-4 -3 -39z"/>
<path d="M4955 1910 c3 -5 8 -10 11 -10 2 0 4 5 4 10 0 6 -5 10 -11 10 -5 0
-7 -4 -4 -10z"/>
<path d="M1815 1870 c-8 -13 -1 -24 14 -19 6 3 7 10 2 18 -6 10 -10 10 -16 1z"/>
<path d="M795 1810 c-3 -6 6 -21 22 -34 l28 -24 28 20 c15 11 26 25 25 30 -5
13 -96 20 -103 8z"/>
<path d="M1155 1791 c-7 -12 12 -24 25 -16 11 7 4 25 -10 25 -5 0 -11 -4 -15
-9z"/>
<path d="M4087 1706 c3 -14 11 -23 21 -22 10 1 16 -6 16 -16 -2 -17 0 -17 28
0 l30 17 -25 3 c-14 2 -33 12 -43 23 -23 26 -32 24 -27 -5z"/>
<path d="M4675 1711 c-3 -6 1 -11 9 -11 8 0 34 -22 56 -49 41 -49 66 -57 72
-23 2 10 -12 24 -39 39 -23 12 -53 29 -67 38 -16 11 -26 13 -31 6z"/>
<path d="M3784 1699 c-3 -6 -2 -15 4 -21 6 -6 12 -6 16 1 4 6 2 11 -4 11 -6 0
-8 5 -5 10 3 6 4 10 1 10 -3 0 -8 -5 -12 -11z"/>
<path d="M3810 1703 c0 -4 5 -15 10 -23 8 -13 10 -13 10 2 0 9 -4 20 -10 23
-5 3 -10 3 -10 -2z"/>
<path d="M1226 1669 c-4 -19 -13 -33 -26 -36 -13 -3 -20 -14 -20 -29 0 -15
-17 -41 -44 -69 -41 -42 -49 -45 -95 -45 -56 0 -58 -4 -36 -46 8 -16 15 -24
15 -17 0 6 13 14 29 18 38 8 127 83 142 120 7 17 20 39 29 50 19 22 34 85 21
85 -5 0 -11 -14 -15 -31z"/>
<path d="M3846 1685 c3 -8 10 -15 16 -15 5 0 6 5 3 10 -3 6 1 10 10 10 9 0 14
-4 11 -8 -3 -5 1 -9 8 -9 29 0 10 23 -20 25 -27 2 -32 -1 -28 -13z"/>
<path d="M4653 1675 c-3 -9 -3 -18 -1 -21 3 -3 8 4 11 16 6 23 -1 27 -10 5z"/>
<path d="M2010 1665 c-10 -13 -9 -15 9 -15 11 0 21 4 21 9 0 18 -18 21 -30 6z"/>
<path d="M904 1659 c-10 -17 13 -36 27 -22 12 12 4 33 -11 33 -5 0 -12 -5 -16
-11z"/>
<path d="M974 1659 c-10 -17 13 -36 27 -22 12 12 4 33 -11 33 -5 0 -12 -5 -16
-11z"/>
<path d="M4227 1663 c-4 -7 -5 -23 -1 -37 4 -18 0 -31 -18 -49 -24 -23 -24
-24 -3 -39 63 -47 95 -60 59 -23 -10 10 -18 42 -23 88 -3 40 -9 67 -14 60z"/>
<path d="M4610 1640 c0 -5 5 -10 11 -10 5 0 7 5 4 10 -3 6 -8 10 -11 10 -2 0
-4 -4 -4 -10z"/>
<path d="M3790 1619 c0 -5 5 -7 10 -4 6 3 10 8 10 11 0 2 -4 4 -10 4 -5 0 -10
-5 -10 -11z"/>
<path d="M4640 1614 c0 -11 16 -36 36 -55 49 -47 58 -66 42 -87 -12 -15 -11
-16 5 -3 25 20 21 33 -19 72 -20 18 -42 48 -50 64 -10 24 -13 26 -14 9z"/>
<path d="M3580 1568 c0 -8 13 -15 30 -16 17 -1 30 3 30 8 0 6 -8 10 -17 8 -10
-1 -24 1 -30 5 -8 5 -13 3 -13 -5z"/>
<path d="M3650 1567 c0 -8 14 -13 40 -13 24 0 40 4 40 12 0 14 -42 13 -52 -1
-5 -6 -8 -5 -8 3 0 6 -4 12 -10 12 -5 0 -10 -6 -10 -13z"/>
<path d="M4803 1563 c-17 -6 -16 -30 1 -36 13 -5 36 10 36 24 0 10 -23 17 -37
12z"/>
<path d="M3827 1514 c-13 -13 -7 -24 14 -24 11 0 19 5 17 12 -5 14 -22 21 -31
12z"/>
<path d="M380 1495 c0 -9 5 -15 11 -13 6 2 11 8 11 13 0 5 -5 11 -11 13 -6 2
-11 -4 -11 -13z"/>
<path d="M0 1432 c0 -18 12 -42 21 -42 14 0 10 26 -6 40 -9 8 -15 8 -15 2z"/>
<path d="M3786 1385 c-21 -25 -42 -45 -48 -45 -20 0 -83 -34 -100 -54 -14 -17
-18 -18 -32 -7 -9 8 -19 11 -23 7 -3 -3 -14 1 -24 10 -17 15 -21 14 -61 -20
-40 -35 -46 -37 -103 -34 l-60 3 -3 -30 c-2 -20 -13 -37 -32 -50 -54 -36 -70
-81 -70 -194 0 -85 3 -102 18 -110 9 -5 32 -35 51 -68 19 -32 46 -70 59 -85
17 -19 23 -34 20 -53 -8 -39 20 -67 69 -70 22 -2 50 -9 61 -16 18 -12 24 -10
44 9 13 13 43 39 68 59 39 31 49 34 85 28 51 -8 83 -28 87 -56 4 -26 48 -62
80 -64 16 -1 24 -10 29 -32 3 -16 9 -35 13 -41 9 -16 39 -15 55 1 10 9 10 7 0
-11 -12 -21 -12 -25 6 -38 19 -14 19 -15 -3 -21 -26 -6 -40 -47 -22 -68 16
-20 76 -38 100 -30 30 9 50 34 50 60 0 18 -8 26 -36 35 -24 8 -34 17 -30 26 3
8 -3 23 -13 33 -15 15 -17 21 -6 25 8 3 17 21 21 40 3 21 12 36 20 36 18 0 44
52 44 87 0 16 9 36 20 46 11 9 20 29 20 46 0 16 7 42 15 57 21 41 19 64 -11
120 -15 27 -40 74 -56 104 -16 30 -57 83 -90 118 -59 62 -60 63 -54 107 7 42
5 45 -23 60 -26 13 -31 22 -31 50 0 36 -28 75 -54 75 -7 0 -30 -20 -50 -45z
m58 -67 c-6 -71 -5 -75 30 -134 43 -71 70 -99 109 -108 38 -9 34 1 -8 18 -38
16 -109 114 -103 143 4 23 28 28 28 6 0 -29 38 -85 87 -129 41 -36 44 -43 34
-62 -6 -12 -21 -22 -32 -22 -11 0 -29 -4 -39 -10 -13 -7 -27 -6 -47 4 -15 8
-41 20 -57 28 -16 7 -51 32 -77 56 -34 31 -55 42 -79 42 -41 0 -66 13 -117 63
-52 50 -58 38 -7 -14 l36 -37 -73 -61 c-57 -48 -77 -59 -96 -55 -17 5 -37 -4
-78 -35 -30 -23 -55 -46 -55 -51 0 -4 -3 -15 -6 -24 -3 -9 -2 -16 4 -16 5 0
13 11 16 25 8 31 86 85 124 85 21 0 50 17 103 60 56 46 79 59 94 54 11 -4 35
-8 53 -9 22 -1 45 -14 70 -37 51 -48 97 -78 119 -78 26 0 43 -19 43 -50 0 -36
11 -71 20 -65 5 3 3 21 -2 40 -14 44 -1 61 55 73 41 8 42 7 69 -32 23 -34 25
-42 13 -49 -23 -12 -18 -27 9 -27 16 0 26 -7 30 -22 10 -39 7 -66 -9 -72 -10
-3 -15 -19 -15 -46 0 -22 -3 -40 -8 -40 -16 0 -52 32 -52 46 0 8 -4 14 -10 14
-14 0 -1 -31 26 -60 17 -18 20 -29 14 -40 -5 -8 -10 -30 -10 -47 0 -30 -3 -33
-30 -33 -26 0 -30 -4 -30 -26 0 -28 -16 -64 -29 -64 -4 0 -18 18 -30 41 -13
22 -34 44 -47 49 -13 5 -24 17 -24 26 0 22 -28 54 -47 54 -10 0 -12 6 -8 21 6
17 4 20 -13 15 -11 -4 -24 -1 -31 8 -7 8 -44 27 -82 42 l-69 27 -39 -27 c-51
-36 -56 -51 -24 -76 36 -28 55 -25 20 4 l-29 23 32 26 c39 33 51 33 116 3 64
-30 77 -47 30 -39 -47 7 -79 -2 -118 -35 -50 -42 -82 -54 -105 -37 -10 8 -26
15 -35 15 -11 0 -18 8 -18 19 0 11 -16 34 -35 52 -19 19 -35 43 -35 54 0 11
-13 36 -30 55 -34 40 -37 53 -12 47 9 -3 34 -8 54 -11 32 -6 42 -15 73 -66 30
-50 34 -63 25 -81 -17 -30 -5 -35 14 -6 16 23 15 27 -18 81 -49 81 -51 83
-107 90 -27 4 -61 11 -76 17 -25 9 -25 10 -21 96 4 84 5 87 41 119 20 19 46
34 57 34 13 0 20 7 20 20 0 16 7 20 33 20 21 0 48 12 77 35 l45 34 32 -20 c34
-21 77 -18 87 6 6 16 63 45 88 45 11 0 32 19 50 45 18 25 35 45 40 45 4 0 5
-33 2 -72z m199 -948 c9 0 17 -5 17 -11 0 -15 -73 -6 -78 10 -4 10 1 12 19 8
13 -4 32 -7 42 -7z"/>
<path d="M3590 905 c0 -14 42 -13 47 1 2 6 -8 10 -22 10 -14 0 -25 -5 -25 -11z"/>
<path d="M3650 906 c0 -9 5 -16 10 -16 6 0 10 4 10 9 0 6 -4 13 -10 16 -5 3
-10 -1 -10 -9z"/>
<path d="M3676 905 c4 -8 8 -15 10 -15 2 0 4 7 4 15 0 8 -4 15 -10 15 -5 0 -7
-7 -4 -15z"/>
<path d="M3700 907 c0 -7 9 -13 20 -14 18 -2 18 0 6 13 -18 17 -26 18 -26 1z"/>
<path d="M3755 909 c-4 -6 -4 -13 -1 -16 3 -4 6 -1 6 6 0 7 5 9 10 6 6 -3 10
-1 10 4 0 14 -17 14 -25 0z"/>
<path d="M3800 905 c0 -6 6 -12 13 -12 8 0 14 6 14 12 0 6 -6 12 -14 12 -7 0
-13 -6 -13 -12z"/>
<path d="M3948 856 c-3 -14 -2 -26 2 -26 12 0 19 26 10 39 -5 9 -9 4 -12 -13z"/>
<path d="M3870 845 c0 -6 14 -12 30 -13 23 -2 30 2 30 15 0 13 -3 14 -12 5
-14 -14 -32 -16 -24 -4 3 5 -1 9 -9 9 -8 0 -15 -5 -15 -12z"/>
<path d="M3988 852 c-10 -2 -18 -8 -18 -14 0 -6 9 -8 20 -5 12 3 18 1 14 -5
-4 -6 -1 -9 6 -6 35 11 15 39 -22 30z"/>
<path d="M969 1408 c-14 -6 -30 -20 -35 -32 -5 -11 -24 -28 -41 -37 -43 -21
-62 -38 -74 -63 -6 -13 1 -9 18 11 15 17 37 34 48 37 17 6 129 98 115 95 -3
-1 -17 -6 -31 -11z"/>
<path d="M4649 1384 c-42 -45 -56 -48 -102 -21 -23 13 -55 27 -72 31 -25 6
-22 2 20 -25 28 -18 63 -43 79 -56 l29 -24 14 33 c8 18 26 45 40 61 15 15 24
27 22 27 -3 0 -16 -12 -30 -26z"/>
<path d="M1266 1388 c3 -5 10 -6 15 -3 13 9 11 12 -6 12 -8 0 -12 -4 -9 -9z"/>
<path d="M1679 1383 c-13 -16 -12 -17 4 -4 16 13 21 21 13 21 -2 0 -10 -8 -17
-17z"/>
<path d="M1724 1389 c-4 -7 -3 -9 4 -5 5 3 13 0 15 -6 4 -9 6 -10 6 -1 1 17
-16 25 -25 12z"/>
<path d="M4692 1389 c2 -7 10 -15 17 -17 8 -3 12 1 9 9 -2 7 -10 15 -17 17 -8
3 -12 -1 -9 -9z"/>
<path d="M1202 1370 c0 -14 2 -19 5 -12 2 6 2 18 0 25 -3 6 -5 1 -5 -13z"/>
<path d="M1799 1373 c-13 -16 -12 -17 4 -4 9 7 17 15 17 17 0 8 -8 3 -21 -13z"/>
<path d="M1372 1360 c0 -14 2 -19 5 -12 2 6 2 18 0 25 -3 6 -5 1 -5 -13z"/>
<path d="M1560 1370 c0 -5 5 -10 10 -10 6 0 10 5 10 10 0 6 -4 10 -10 10 -5 0
-10 -4 -10 -10z"/>
<path d="M1496 1343 c-6 -14 -5 -15 5 -6 7 7 10 15 7 18 -3 3 -9 -2 -12 -12z"/>
<path d="M1815 1349 c-4 -6 -5 -12 -2 -15 2 -3 7 2 10 11 7 17 1 20 -8 4z"/>
<path d="M387 1332 c-25 -27 -21 -42 11 -42 37 0 67 22 59 44 -9 22 -50 20
-70 -2z"/>
<path d="M713 1317 c-18 -7 -40 -23 -49 -37 -16 -25 -15 -25 3 -4 10 12 36 27
56 33 20 7 37 14 37 17 0 6 -11 4 -47 -9z"/>
<path d="M629 1293 c-13 -17 -13 -17 6 -3 11 8 22 16 24 17 2 2 0 3 -6 3 -6 0
-17 -8 -24 -17z"/>
<path d="M5083 1261 c-26 -34 -30 -47 -22 -57 8 -9 8 -14 1 -14 -6 0 -20 -26
-32 -57 -21 -54 -21 -64 -10 -136 12 -81 6 -107 -26 -107 -12 0 -44 -37 -44
-52 0 -20 35 -38 74 -38 51 0 82 28 92 80 l7 35 -40 -37 c-48 -46 -127 -56
-81 -10 7 7 27 12 45 12 30 0 33 3 33 29 0 22 6 32 23 37 21 7 21 8 -9 20 -28
12 -32 19 -38 67 -7 56 7 107 29 107 21 0 36 54 33 111 l-3 54 -32 -44z"/>
<path d="M4586 1265 c-9 -26 -7 -32 5 -12 6 10 9 21 6 23 -2 3 -7 -2 -11 -11z"/>
<path d="M635 1235 c-3 -8 -7 -22 -10 -31 -3 -9 -18 -21 -34 -27 -17 -6 -35
-20 -41 -31 -6 -12 -24 -28 -39 -37 -26 -15 -29 -21 -26 -62 4 -52 30 -104 57
-113 27 -8 51 -50 45 -76 -3 -11 1 -34 9 -50 12 -23 21 -28 52 -28 21 0 47 -6
57 -14 14 -10 25 -11 38 -4 11 5 29 7 41 4 15 -4 25 1 34 14 7 11 19 20 28 20
9 0 27 11 40 25 13 14 19 25 14 25 -5 0 -15 -8 -22 -18 -31 -44 -195 -52 -243
-12 -13 11 -30 66 -23 73 2 1 -3 9 -10 17 -81 95 -95 140 -61 200 13 22 28 40
34 40 16 0 61 51 70 78 3 12 4 22 0 22 -3 0 -8 -7 -10 -15z"/>
<path d="M4314 1024 c-18 -14 -18 -15 4 -4 12 6 22 13 22 15 0 8 -5 6 -26 -11z"/>
<path d="M4281 1012 c-1 -14 76 -172 84 -172 3 0 -12 35 -33 78 -22 42 -42 84
-45 92 -3 10 -6 10 -6 2z"/>
<path d="M3024 975 c-7 -18 3 -35 21 -35 18 0 26 25 12 39 -15 15 -27 14 -33
-4z"/>
<path d="M2885 835 c-22 -19 -45 -35 -51 -35 -7 0 -26 -13 -44 -30 -26 -24
-31 -36 -29 -67 1 -21 -8 -69 -19 -107 -24 -75 -28 -123 -11 -146 8 -11 9 -5
5 24 -3 21 -2 51 1 68 l6 29 30 -30 c19 -20 39 -31 58 -31 26 0 32 5 65 58 1
2 17 -6 35 -16 30 -17 34 -23 33 -59 -1 -35 1 -40 17 -36 23 6 24 15 3 56 -11
21 -17 59 -18 109 -1 43 -3 78 -6 78 -3 0 -11 -14 -19 -31 -7 -16 -15 -28 -18
-26 -2 3 7 27 21 54 32 64 40 111 23 143 -18 36 -37 35 -82 -5z m30 -129 c-54
-141 -57 -146 -80 -146 -34 0 -50 25 -36 56 6 14 11 42 11 64 0 35 6 44 63 94
62 56 62 56 65 29 2 -15 -8 -58 -23 -97z"/>
<path d="M938 853 c-10 -2 -18 -8 -18 -13 0 -15 40 -22 55 -10 12 10 19 10 33
-1 15 -12 16 -11 2 3 -18 19 -48 27 -72 21z"/>
<path d="M3251 781 c-17 -11 -2 -41 20 -41 12 0 19 7 19 19 0 21 -21 33 -39
22z"/>
<path d="M1061 763 c7 -12 15 -20 18 -17 3 2 -3 12 -13 22 -17 16 -18 16 -5
-5z"/>
<path d="M656 733 c-10 -10 -7 -43 4 -43 5 0 14 9 19 19 8 14 7 20 -3 24 -8 3
-17 3 -20 0z"/>
<path d="M3132 723 c5 -26 38 -29 38 -4 0 15 -6 21 -21 21 -14 0 -19 -5 -17
-17z"/>
<path d="M530 663 c-42 -59 -48 -103 -15 -103 32 0 112 -104 96 -124 -9 -11
-4 -13 27 -11 21 1 48 7 60 14 25 13 30 23 7 15 -13 -5 -14 -2 -5 21 15 40 12
61 -9 61 -11 0 -17 -5 -14 -13 3 -7 10 -10 16 -6 6 4 7 -4 3 -23 -14 -54 -51
-53 -62 2 -8 41 0 66 19 58 10 -4 16 4 19 26 5 35 -1 41 -52 50 -33 5 -35 7
-32 43 4 52 -16 48 -58 -10z"/>
<path d="M4440 690 c6 -11 13 -20 16 -20 2 0 0 9 -6 20 -6 11 -13 20 -16 20
-2 0 0 -9 6 -20z"/>
<path d="M1078 690 c-3 -9 0 -29 7 -45 10 -22 13 -25 13 -10 0 11 -3 31 -7 45
-5 19 -8 21 -13 10z"/>
<path d="M745 640 c-3 -5 -1 -10 4 -10 6 0 11 5 11 10 0 6 -2 10 -4 10 -3 0
-8 -4 -11 -10z"/>
<path d="M810 635 c0 -9 5 -15 11 -13 6 2 11 8 11 13 0 5 -5 11 -11 13 -6 2
-11 -4 -11 -13z"/>
<path d="M972 600 c-33 -31 -52 -38 -52 -20 0 6 -5 10 -11 10 -6 0 -9 -7 -5
-15 3 -8 0 -15 -7 -15 -14 0 -87 -37 -102 -52 -5 -5 2 -4 16 2 35 16 82 -8
105 -53 27 -53 44 -67 83 -67 49 0 83 -20 101 -58 9 -17 30 -44 48 -59 30 -26
51 -73 55 -125 1 -10 5 -18 10 -18 5 0 6 -12 3 -28 -3 -15 1 -45 9 -67 14 -39
14 -39 15 -10 0 17 3 47 6 67 7 51 -56 182 -96 200 -16 7 -32 25 -39 45 -13
34 -91 90 -110 79 -12 -8 -28 13 -36 47 -7 28 10 38 31 18 5 -5 28 -12 50 -16
31 -5 43 -3 47 8 4 10 0 13 -12 10 -9 -2 -28 4 -41 15 l-24 20 18 41 c15 33
17 43 6 56 -18 21 -30 19 -68 -15z"/>
<path d="M3150 617 c0 -19 10 -27 26 -20 21 8 17 33 -6 33 -11 0 -20 -6 -20
-13z"/>
<path d="M1101 594 c0 -11 3 -14 6 -6 3 7 2 16 -1 19 -3 4 -6 -2 -5 -13z"/>
<path d="M700 590 c-12 -7 -12 -12 -3 -21 10 -10 14 -9 19 5 8 22 2 27 -16 16z"/>
<path d="M4293 570 c-26 -11 -28 -19 -12 -54 14 -31 89 -52 140 -39 26 7 36
16 43 42 6 21 6 35 -2 43 -14 14 -141 21 -169 8z m132 -35 c0 -11 -59 -19 -82
-11 -8 3 -11 11 -8 16 8 14 90 9 90 -5z"/>
<path d="M4500 546 c0 -19 3 -37 8 -40 4 -2 6 13 4 35 -5 48 -12 51 -12 5z"/>
<path d="M1080 555 c-7 -8 -9 -22 -6 -31 5 -13 9 -14 21 -4 17 14 20 36 6 44
-5 3 -14 -1 -21 -9z"/>
<path d="M4160 531 c0 -24 28 -35 47 -19 13 10 12 14 -3 25 -25 19 -44 16 -44
-6z"/>
<path d="M4325 459 c-10 -15 3 -25 16 -12 7 7 7 13 1 17 -6 3 -14 1 -17 -5z"/>
<path d="M3504 445 c-8 -19 3 -35 26 -35 16 0 30 18 30 41 0 15 -50 10 -56 -6z"/>
<path d="M2911 422 c-5 -9 -11 -33 -14 -52 -9 -68 -17 -80 -51 -80 -36 0 -56
-15 -56 -41 0 -24 -18 -33 -36 -18 -11 9 -14 23 -9 53 11 70 13 114 4 127 -13
22 -20 4 -27 -73 -6 -58 -13 -81 -35 -109 -34 -46 -35 -76 -2 -89 29 -11 46 1
128 87 27 29 59 55 71 59 30 10 36 23 29 70 -3 23 0 50 6 63 7 11 9 21 7 21
-3 0 -10 -8 -15 -18z"/>
<path d="M4344 429 c-9 -16 12 -33 31 -25 14 5 15 9 5 21 -15 18 -26 19 -36 4z"/>
<path d="M3587 383 c-13 -12 -7 -41 9 -47 19 -7 44 10 44 29 0 19 -39 32 -53
18z"/>
<path d="M597 353 c-4 -3 -7 -12 -7 -20 0 -15 26 -18 34 -4 7 11 -18 33 -27
24z"/>
<path d="M3045 349 c-10 -15 1 -23 20 -15 9 3 13 10 10 16 -8 13 -22 13 -30
-1z"/>
<path d="M4350 335 c-19 -21 -22 -29 -14 -43 14 -22 39 -22 38 1 -2 18 11 23
21 7 9 -15 35 0 35 21 0 17 -27 39 -48 39 -5 0 -19 -11 -32 -25z"/>
<path d="M924 329 c-10 -17 13 -36 27 -22 12 12 4 33 -11 33 -5 0 -12 -5 -16
-11z"/>
<path d="M5087 252 c-23 -25 -21 -32 5 -32 17 0 19 -3 10 -12 -17 -17 -15 -38
3 -38 11 0 15 12 15 50 0 54 -7 61 -33 32z"/>
<path d="M294 234 c-18 -14 -18 -15 4 -4 12 6 22 13 22 15 0 8 -5 6 -26 -11z"/>
<path d="M3958 229 c-24 -14 -23 -46 3 -59 16 -9 26 -8 45 5 28 18 30 28 8 49
-18 18 -32 20 -56 5z"/>
<path d="M4335 206 c-16 -16 -35 -24 -55 -24 -68 2 -76 -54 -14 -92 18 -12 34
-27 34 -32 0 -6 3 -9 6 -6 3 4 -2 20 -10 37 -22 42 -20 58 3 37 28 -26 56 -17
54 17 -1 15 2 27 8 27 5 0 9 -4 9 -10 0 -5 7 -10 15 -10 8 0 15 7 15 15 0 20
19 19 27 0 3 -9 -2 -22 -13 -30 -18 -13 -18 -14 -1 -15 20 0 22 -11 5 -28 -9
-9 -16 -8 -29 4 -14 12 -22 13 -38 4 -27 -14 -26 -24 4 -48 22 -18 29 -18 62
-7 77 26 96 120 34 162 -44 30 -85 29 -116 -1z"/>
<path d="M3706 203 c-3 -3 -3 -10 0 -14 7 -12 34 -11 34 0 0 11 -26 22 -34 14z"/>
<path d="M1698 160 c-11 -37 -10 -47 8 -64 24 -24 38 -19 21 7 -8 13 -17 37
-19 53 l-3 29 -7 -25z"/>
<path d="M2144 155 c-4 -8 -9 -13 -13 -11 -4 3 -27 0 -52 -6 -24 -6 -49 -11
-56 -11 -6 0 -9 -5 -7 -11 2 -6 27 -12 54 -12 45 -2 51 1 75 32 14 19 21 34
15 34 -6 0 -13 -7 -16 -15z"/>
<path d="M1765 132 c-7 -19 -7 -19 13 -24 11 -3 34 -28 52 -57 18 -28 36 -51
40 -51 3 0 17 12 29 26 17 19 28 24 47 20 20 -5 24 -3 24 17 0 12 8 34 17 47
l16 25 -24 -22 c-15 -13 -44 -24 -76 -28 -44 -5 -55 -3 -72 14 -12 12 -21 27
-21 34 0 17 -38 16 -45 -1z"/>
<path d="M5058 137 c-34 -16 -68 -47 -68 -62 0 -7 8 -16 17 -19 15 -6 14 -9
-7 -19 -35 -18 -37 -37 -3 -37 20 0 40 11 63 35 19 19 40 35 47 35 7 0 13 9
13 21 0 15 -4 19 -15 15 -44 -18 -51 -18 -31 -2 11 9 26 16 33 16 7 0 13 7 13
15 0 18 -24 18 -62 2z"/>
<path d="M3240 69 c-19 -10 -46 -19 -60 -19 -29 0 -50 -16 -50 -38 0 -14 0
-14 205 4 39 3 73 10 76 16 9 14 69 0 76 -18 4 -10 23 -14 64 -14 66 0 79 14
22 25 -20 4 -50 17 -65 30 -33 28 -85 42 -101 26 -14 -14 -54 -14 -62 -1 -10
16 -67 10 -105 -11z"/>
<path d="M4165 80 c-6 -10 34 -30 60 -30 26 0 26 20 0 30 -33 13 -52 13 -60 0z"/>
<path d="M4862 70 c-32 -8 -82 -45 -82 -62 0 -4 25 -8 55 -8 40 0 57 4 61 15
4 10 15 12 35 8 24 -4 29 -2 29 14 0 40 -28 50 -98 33z"/>
<path d="M1741 60 c0 -8 4 -24 9 -35 l9 -20 0 20 c0 11 -4 27 -9 35 -9 13 -10
13 -9 0z"/>
<path d="M3810 50 c8 -5 20 -10 25 -10 6 0 3 5 -5 10 -8 5 -19 10 -25 10 -5 0
-3 -5 5 -10z"/>
<path d="M3683 43 c-20 -7 -15 -33 6 -33 11 0 22 4 25 9 8 12 -16 29 -31 24z"/>
<path d="M4070 40 c0 -5 7 -10 15 -10 8 0 15 5 15 10 0 6 -7 10 -15 10 -8 0
-15 -4 -15 -10z"/>
</g>
</svg>